<svg width="336" height="336" viewBox="0 0 336 336" fill="none" xmlns="http://www.w3.org/2000/svg">
<path d="M167.509 336C253.946 336 324.018 314.51 324.018 288C324.018 261.49 253.946 240 167.509 240C81.0714 240 11 261.49 11 288C11 314.51 81.0714 336 167.509 336Z" fill="#F5F5F5"/>
<path d="M336 256.973H0V257.141H336V256.973Z" fill="#EBEBEB"/>
<path d="M292.77 267.785H280.076V267.953H292.77V267.785Z" fill="#EBEBEB"/>
<path d="M216.733 266.616H196.93V266.784H216.733V266.616Z" fill="#EBEBEB"/>
<path d="M279.404 261.549H247.746V261.717H279.404V261.549Z" fill="#EBEBEB"/>
<path d="M42.625 262.678H35.2531V262.846H42.625V262.678Z" fill="#EBEBEB"/>
<path d="M74.5181 262.678H48.6058V262.846H74.5181V262.678Z" fill="#EBEBEB"/>
<path d="M151.301 265.514H114.912V265.682H151.301V265.514Z" fill="#EBEBEB"/>
<path d="M159.264 227.002H29.5075C28.491 227 27.5168 226.595 26.7986 225.875C26.0805 225.156 25.6771 224.181 25.6771 223.164V40.7635C25.686 39.7528 26.0932 38.7864 26.8104 38.0743C27.5276 37.3621 28.4968 36.9617 29.5075 36.96H159.264C160.282 36.96 161.258 37.3642 161.977 38.0838C162.697 38.8034 163.101 39.7794 163.101 40.7971V223.164C163.101 224.182 162.697 225.158 161.977 225.878C161.258 226.597 160.282 227.002 159.264 227.002ZM29.5075 37.0944C28.5356 37.0961 27.604 37.4835 26.9174 38.1714C26.2308 38.8593 25.8451 39.7915 25.8451 40.7635V223.164C25.8451 224.136 26.2308 225.069 26.9174 225.757C27.604 226.444 28.5356 226.832 29.5075 226.834H159.264C160.237 226.832 161.169 226.445 161.857 225.757C162.544 225.069 162.931 224.137 162.933 223.164V40.7635C162.931 39.7909 162.544 38.8587 161.857 38.171C161.169 37.4833 160.237 37.0961 159.264 37.0944H29.5075Z" fill="#EBEBEB"/>
<path d="M304.624 227.002H174.861C173.844 227 172.869 226.595 172.15 225.876C171.431 225.157 171.026 224.182 171.024 223.164V40.7635C171.035 39.7522 171.443 38.7858 172.162 38.0739C172.88 37.3619 173.85 36.9617 174.861 36.96H304.624C305.634 36.9635 306.601 37.3647 307.317 38.0766C308.033 38.7886 308.439 39.754 308.448 40.7635V223.164C308.448 224.18 308.046 225.154 307.329 225.873C306.612 226.592 305.64 226.998 304.624 227.002ZM174.861 37.0944C173.889 37.0961 172.956 37.4833 172.269 38.171C171.581 38.8587 171.194 39.7909 171.192 40.7635V223.164C171.194 224.137 171.581 225.069 172.269 225.757C172.956 226.445 173.889 226.832 174.861 226.834H304.624C305.597 226.832 306.529 226.445 307.217 225.757C307.905 225.069 308.292 224.137 308.293 223.164V40.7635C308.292 39.7909 307.905 38.8587 307.217 38.171C306.529 37.4833 305.597 37.0961 304.624 37.0944H174.861Z" fill="#EBEBEB"/>
<path d="M292.77 267.785H280.076V267.953H292.77V267.785Z" fill="#EBEBEB"/>
<path d="M216.733 266.616H196.93V266.784H216.733V266.616Z" fill="#EBEBEB"/>
<path d="M279.404 261.549H247.746V261.717H279.404V261.549Z" fill="#EBEBEB"/>
<path d="M42.625 262.678H35.2531V262.846H42.625V262.678Z" fill="#EBEBEB"/>
<path d="M74.5181 262.678H48.6058V262.846H74.5181V262.678Z" fill="#EBEBEB"/>
<path d="M151.301 265.514H114.912V265.682H151.301V265.514Z" fill="#EBEBEB"/>
<path d="M134.911 245.747C138.751 236.475 134.349 225.846 125.077 222.005C115.805 218.165 105.176 222.568 101.336 231.84C97.4952 241.111 101.898 251.74 111.17 255.581C120.441 259.421 131.071 255.018 134.911 245.747Z" fill="#E0E0E0"/>
<path d="M247.942 251.643C255.039 244.547 255.039 233.042 247.942 225.946C240.846 218.85 229.341 218.85 222.245 225.946C215.149 233.042 215.149 244.547 222.245 251.643C229.341 258.739 240.846 258.739 247.942 251.643Z" fill="#E0E0E0"/>
<path d="M56.6429 159.022L37.7059 197.655V233.95H111.001V159.022H56.6429Z" fill="#F5F5F5"/>
<path d="M59.6938 165.937L47.5171 190.781V199.093H77.5219V165.937H59.6938Z" fill="#EBEBEB"/>
<path d="M99.8525 159.022H87.0912V233.95H99.8525V159.022Z" fill="#E0E0E0"/>
<path d="M92.2656 233.95L266.522 233.95V146.435L92.2656 146.435V233.95Z" fill="#EBEBEB"/>
<path d="M37.7059 240.025L266.522 240.025V233.95L37.7059 233.95V240.025Z" fill="#E6E6E6"/>
<path d="M75.9969 245.751C79.8373 236.48 75.4344 225.85 66.1628 222.01C56.8912 218.169 46.2619 222.572 42.4214 231.844C38.581 241.115 42.9839 251.745 52.2555 255.585C61.527 259.426 72.1564 255.023 75.9969 245.751Z" fill="#E6E6E6"/>
<path d="M59.2099 229.824C60.9928 229.823 62.736 230.35 64.219 231.34C65.702 232.33 66.858 233.737 67.5409 235.384C68.2238 237.031 68.4028 238.843 68.0553 240.592C67.7078 242.341 66.8494 243.947 65.5887 245.208C64.3281 246.468 62.7217 247.327 60.9731 247.674C59.2244 248.022 57.4119 247.843 55.765 247.16C54.1181 246.477 52.7107 245.321 51.721 243.838C50.7314 242.355 50.2038 240.612 50.2051 238.829C50.2087 236.442 51.1585 234.153 52.8465 232.465C54.5345 230.777 56.8228 229.828 59.2099 229.824ZM59.2099 227.136C56.8957 227.136 54.6334 227.822 52.7093 229.108C50.7852 230.394 49.2857 232.222 48.4003 234.36C47.515 236.498 47.2837 238.851 47.7357 241.12C48.1877 243.39 49.3026 245.475 50.9395 247.111C52.5764 248.747 54.6617 249.86 56.9316 250.311C59.2015 250.762 61.5541 250.529 63.6918 249.643C65.8295 248.756 67.6562 247.255 68.941 245.331C70.2257 243.406 70.9108 241.143 70.9094 238.829C70.9094 237.293 70.6068 235.772 70.0187 234.353C69.4307 232.934 68.5688 231.644 67.4823 230.558C66.3958 229.472 65.106 228.611 63.6866 228.024C62.2672 227.437 60.746 227.135 59.2099 227.136Z" fill="#F5F5F5"/>
<path d="M189.033 251.645C196.13 244.548 196.13 233.043 189.033 225.947C181.937 218.851 170.432 218.851 163.336 225.947C156.24 233.043 156.24 244.548 163.336 251.645C170.432 258.741 181.937 258.741 189.033 251.645Z" fill="#E6E6E6"/>
<path d="M176.185 229.824C177.968 229.823 179.711 230.35 181.194 231.34C182.677 232.33 183.833 233.737 184.516 235.384C185.199 237.031 185.378 238.843 185.03 240.592C184.683 242.341 183.824 243.947 182.564 245.208C181.303 246.468 179.697 247.327 177.948 247.674C176.199 248.022 174.387 247.843 172.74 247.16C171.093 246.477 169.686 245.321 168.696 243.838C167.706 242.355 167.179 240.612 167.18 238.829C167.184 236.442 168.134 234.153 169.822 232.465C171.509 230.777 173.798 229.828 176.185 229.824ZM176.185 227.136C173.871 227.136 171.608 227.822 169.684 229.108C167.76 230.394 166.261 232.222 165.375 234.36C164.49 236.498 164.259 238.851 164.711 241.12C165.163 243.39 166.278 245.475 167.915 247.111C169.551 248.747 171.637 249.86 173.907 250.311C176.177 250.762 178.529 250.529 180.667 249.643C182.805 248.756 184.631 247.255 185.916 245.331C187.201 243.406 187.886 241.143 187.884 238.829C187.884 237.293 187.582 235.772 186.994 234.353C186.406 232.934 185.544 231.644 184.457 230.558C183.371 229.472 182.081 228.611 180.662 228.024C179.242 227.437 177.721 227.135 176.185 227.136Z" fill="#F5F5F5"/>
<path d="M263.74 152.289H204.214V231.564H263.74V152.289Z" fill="#E0E0E0"/>
<path d="M233.977 207.856H216.928V231.564H233.977V207.856Z" fill="#FAFAFA"/>
<path d="M227.64 207.856H223.265V215.974H227.64V207.856Z" fill="#F5F5F5"/>
<path d="M253.27 213.145H236.221V231.558H253.27V213.145Z" fill="#FAFAFA"/>
<path d="M233.977 231.564H236.221V213.152H233.977V231.564Z" fill="#EBEBEB"/>
<path d="M246.933 213.145H242.558V221.263H246.933V213.145Z" fill="#F5F5F5"/>
<path d="M263.74 231.558H298.294V152.282H263.74V231.558Z" fill="#F0F0F0"/>
<path d="M204.207 231.558H216.922V152.282H204.207V231.558Z" fill="#F0F0F0"/>
<path d="M157.476 213.642C172.559 213.642 184.787 201.415 184.787 186.332C184.787 171.249 172.559 159.022 157.476 159.022C142.394 159.022 130.166 171.249 130.166 186.332C130.166 201.415 142.394 213.642 157.476 213.642Z" fill="white"/>
<path d="M161.871 170.849H153.082V201.815H161.871V170.849Z" fill="#EBEBEB"/>
<path d="M172.953 190.727V181.937H141.987V190.727H172.953Z" fill="#EBEBEB"/>
<path d="M191.698 79.4683C193.926 65.7415 184.605 52.8075 170.878 50.5793C157.151 48.3512 144.217 57.6726 141.989 71.3994C139.761 85.1262 149.082 98.0602 162.809 100.288C176.536 102.517 189.47 93.1951 191.698 79.4683Z" fill="#FAFAFA"/>
<path d="M207.937 89.7023C210.383 74.631 200.149 60.4302 185.077 57.9838C170.006 55.5374 155.805 65.7718 153.359 80.8431C150.912 95.9143 161.147 110.115 176.218 112.562C191.289 115.008 205.49 104.774 207.937 89.7023Z" fill="#FAFAFA"/>
<path d="M161.362 105.294C170.066 96.5893 170.066 82.4759 161.362 73.771C152.657 65.0661 138.543 65.0661 129.838 73.771C121.134 82.4759 121.134 96.5893 129.838 105.294C138.543 113.999 152.657 113.999 161.362 105.294Z" fill="#FAFAFA"/>
<path d="M121.457 105.013C128.305 105.013 133.856 99.4624 133.856 92.615C133.856 85.7675 128.305 80.2166 121.457 80.2166C114.61 80.2166 109.059 85.7675 109.059 92.615C109.059 99.4624 114.61 105.013 121.457 105.013Z" fill="#FAFAFA"/>
<path d="M215.025 102.562C220.521 97.0669 220.521 88.1572 215.025 82.6619C209.53 77.1666 200.62 77.1665 195.125 82.6619C189.63 88.1572 189.63 97.0669 195.125 102.562C200.62 108.058 209.53 108.058 215.025 102.562Z" fill="#FAFAFA"/>
<path d="M263.101 82.2528C272.988 82.2528 281.004 74.2377 281.004 64.3507C281.004 54.4636 272.988 46.4486 263.101 46.4486C253.214 46.4486 245.199 54.4636 245.199 64.3507C245.199 74.2377 253.214 82.2528 263.101 82.2528Z" fill="#F5F5F5"/>
<path d="M247.027 81.6346C254.539 81.6346 260.628 75.5451 260.628 68.0333C260.628 60.5215 254.539 54.432 247.027 54.432C239.515 54.432 233.426 60.5215 233.426 68.0333C233.426 75.5451 239.515 81.6346 247.027 81.6346Z" fill="#F5F5F5"/>
<path d="M277.825 86.8022C286.576 86.8022 293.671 79.7078 293.671 70.9565C293.671 62.2051 286.576 55.1107 277.825 55.1107C269.074 55.1107 261.979 62.2051 261.979 70.9565C261.979 79.7078 269.074 86.8022 277.825 86.8022Z" fill="#F5F5F5"/>
<path d="M292.199 76.428C297.375 75.2063 300.581 70.0198 299.36 64.8437C298.138 59.6675 292.951 56.4618 287.775 57.6835C282.599 58.9051 279.393 64.0916 280.615 69.2678C281.837 74.4439 287.023 77.6496 292.199 76.428Z" fill="#F5F5F5"/>
<path d="M76.5408 82.2124C85.1474 82.2124 92.1245 75.2354 92.1245 66.6287C92.1245 58.0221 85.1474 51.045 76.5408 51.045C67.9342 51.045 60.9571 58.0221 60.9571 66.6287C60.9571 75.2354 67.9342 82.2124 76.5408 82.2124Z" fill="#F5F5F5"/>
<path d="M93.242 74.9488C99.6065 73.4467 103.548 67.0694 102.046 60.7049C100.544 54.3404 94.1667 50.3986 87.8022 51.9008C81.4376 53.403 77.4959 59.7802 78.9981 66.1447C80.5002 72.5093 86.8774 76.451 93.242 74.9488Z" fill="#F5F5F5"/>
<path d="M63.719 74.6659C71.3347 74.6659 77.5085 68.4922 77.5085 60.8765C77.5085 53.2608 71.3347 47.087 63.719 47.087C56.1033 47.087 49.9296 53.2608 49.9296 60.8765C49.9296 68.4922 56.1033 74.6659 63.719 74.6659Z" fill="#F5F5F5"/>
<path d="M59.0576 70.2047C62.3301 66.9322 62.3301 61.6264 59.0576 58.3539C55.785 55.0813 50.4792 55.0813 47.2067 58.3539C43.9342 61.6264 43.9342 66.9322 47.2067 70.2047C50.4792 73.4773 55.785 73.4773 59.0576 70.2047Z" fill="#F5F5F5"/>
<path d="M168 287.32C239.959 287.32 298.294 283.914 298.294 279.713C298.294 275.512 239.959 272.106 168 272.106C96.0406 272.106 37.7059 275.512 37.7059 279.713C37.7059 283.914 96.0406 287.32 168 287.32Z" fill="#F5F5F5"/>
<path d="M94.5974 241.812H49.8019V277.476H94.5974V241.812Z" fill="#F4D1A1"/>
<path opacity="0.7" d="M94.5974 241.812H49.8019V277.476H94.5974V241.812Z" fill="white"/>
<path opacity="0.4" d="M94.5974 241.812H78.7449V277.476H94.5974V241.812Z" fill="#F4D1A1"/>
<path d="M90.72 259.641C90.72 263.384 89.1744 266.414 87.2659 266.414C85.3574 266.414 83.8118 263.384 83.8118 259.641C83.8118 255.898 85.3574 252.874 87.2659 252.874C89.1744 252.874 90.72 255.904 90.72 259.641Z" fill="white"/>
<path d="M87.911 255.474H86.6141V263.807H87.911V255.474Z" fill="#F4D1A1"/>
<path d="M89.7321 260.743V258.545H84.7997V260.743H89.7321Z" fill="#F4D1A1"/>
<path opacity="0.7" d="M61.4409 277.469H67.0992V263.982H61.4409V277.469Z" fill="white"/>
<path opacity="0.7" d="M61.4409 248.136H67.0992V241.812H61.4409V248.136Z" fill="white"/>
<path d="M130.516 241.812H85.7203V277.476H130.516V241.812Z" fill="#F4D1A1"/>
<path opacity="0.7" d="M130.516 241.812H85.7203V277.476H130.516V241.812Z" fill="white"/>
<path opacity="0.4" d="M130.509 241.812H114.657V277.476H130.509V241.812Z" fill="#F4D1A1"/>
<path d="M126.632 259.641C126.632 263.384 125.086 266.414 123.178 266.414C121.269 266.414 119.724 263.384 119.724 259.641C119.724 255.898 121.269 252.874 123.178 252.874C125.086 252.874 126.632 255.904 126.632 259.641Z" fill="white"/>
<path d="M123.823 255.474H122.526V263.807H123.823V255.474Z" fill="#F4D1A1"/>
<path d="M125.644 260.743V258.545H120.711V260.743H125.644Z" fill="#F4D1A1"/>
<path opacity="0.7" d="M103.018 241.812H97.3594V255.3H103.018V241.812Z" fill="white"/>
<path opacity="0.7" d="M103.018 271.145H97.3594V277.469H103.018V271.145Z" fill="white"/>
<path d="M115.739 214.543H70.943V241.812H115.739V214.543Z" fill="#F4D1A1"/>
<path opacity="0.7" d="M115.739 214.543H70.943V241.812H115.739V214.543Z" fill="white"/>
<path opacity="0.4" d="M115.739 214.543H99.8861V241.812H115.739V214.543Z" fill="#F4D1A1"/>
<path d="M108.4 234.951C110.308 234.951 111.854 231.919 111.854 228.178C111.854 224.437 110.308 221.404 108.4 221.404C106.493 221.404 104.946 224.437 104.946 228.178C104.946 231.919 106.493 234.951 108.4 234.951Z" fill="white"/>
<path d="M109.052 224.011H107.755V232.344H109.052V224.011Z" fill="#F4D1A1"/>
<path d="M110.867 229.28V227.082H105.934V229.28H110.867Z" fill="#F4D1A1"/>
<path opacity="0.7" d="M88.2403 214.543H82.5821V223.83H88.2403V214.543Z" fill="white"/>
<path opacity="0.7" d="M88.2403 235.489H82.5821V241.813H88.2403V235.489Z" fill="white"/>
<path d="M123.924 104.832L126.336 108.864C127.163 110.208 127.982 111.552 128.829 112.849C130.509 115.49 132.25 118.077 134.077 120.523C134.528 121.148 135.005 121.726 135.462 122.331C135.697 122.633 135.939 122.909 136.174 123.198L136.53 123.635L136.712 123.85C136.712 123.883 136.712 123.85 136.712 123.85L136.651 123.796L136.53 123.708C136.208 123.5 136.08 123.52 136.114 123.554C136.238 123.638 136.381 123.689 136.53 123.702C137.108 123.788 137.694 123.815 138.277 123.782C141.291 123.543 144.288 123.116 147.249 122.506L148.915 126.477C147.47 127.413 145.956 128.237 144.386 128.943C142.763 129.701 141.071 130.299 139.332 130.731C138.323 130.983 137.288 131.125 136.248 131.154C135.583 131.172 134.918 131.116 134.266 130.986C133.321 130.799 132.43 130.401 131.658 129.824C131.539 129.736 131.425 129.641 131.316 129.541L131.141 129.38L131.013 129.259L130.785 129.024L130.328 128.56C130.025 128.244 129.709 127.935 129.42 127.62C128.849 126.948 128.238 126.356 127.707 125.704C125.518 123.132 123.474 120.44 121.585 117.64C120.651 116.296 119.737 114.865 118.897 113.447C118.057 112.029 117.197 110.618 116.37 109.072L123.924 104.832Z" fill="#FF8B7B"/>
<path d="M145.764 123.54L150.575 119.052L154.157 124.515C154.157 124.515 150.918 128.466 147.06 126.672L145.764 123.54Z" fill="#F4D1A1"/>
<path d="M156.576 118.144L157.248 121.135C157.303 121.38 157.289 121.636 157.205 121.874C157.122 122.112 156.974 122.321 156.778 122.479L154.177 124.535L150.595 119.072L154.755 117.244C154.933 117.169 155.124 117.134 155.317 117.14C155.509 117.145 155.698 117.193 155.871 117.278C156.044 117.364 156.196 117.485 156.318 117.635C156.439 117.784 156.527 117.958 156.576 118.144Z" fill="#F4D1A1"/>
<path d="M137.679 273.316C137.656 273.305 137.637 273.288 137.624 273.267C137.611 273.245 137.604 273.22 137.605 273.195C137.604 273.167 137.612 273.139 137.628 273.116C137.643 273.093 137.666 273.076 137.693 273.067C137.968 272.966 140.381 272.12 141.053 272.604C141.112 272.649 141.159 272.708 141.189 272.776C141.22 272.844 141.233 272.919 141.228 272.993C141.223 273.116 141.19 273.236 141.13 273.344C141.071 273.451 140.987 273.543 140.885 273.612C140.213 274.082 138.587 273.612 137.693 273.323L137.679 273.316ZM140.844 272.792C140.435 272.583 139.131 272.886 138.156 273.195C139.386 273.571 140.327 273.645 140.717 273.383C140.787 273.34 140.844 273.28 140.883 273.208C140.922 273.136 140.941 273.055 140.939 272.973C140.944 272.944 140.94 272.913 140.928 272.886C140.916 272.858 140.896 272.835 140.871 272.819L140.844 272.792Z" fill="#F4D1A1"/>
<path d="M138.788 271.098C138.901 271.023 139.029 270.972 139.164 270.948C139.298 270.925 139.436 270.93 139.568 270.964C139.931 271.051 140.011 271.253 140.011 271.407C140.011 272.079 138.499 273.114 137.773 273.329C137.759 273.336 137.743 273.339 137.726 273.339C137.71 273.339 137.694 273.336 137.679 273.329C137.663 273.313 137.651 273.292 137.644 273.27C137.637 273.248 137.635 273.225 137.639 273.202C137.619 273.101 137.982 271.589 138.788 271.098ZM139.742 271.414C139.742 271.414 139.742 271.327 139.635 271.28L139.5 271.226H139.44C139.262 271.198 139.081 271.237 138.929 271.333C138.437 271.77 138.09 272.347 137.935 272.987C138.694 272.651 139.776 271.811 139.776 271.414H139.742Z" fill="#F4D1A1"/>
<path d="M132.283 273.827L138.009 273.739L137.652 260.42L131.92 260.514L132.283 273.827Z" fill="#FF8B7B"/>
<path d="M138.076 273.074L131.82 273.175C131.709 273.173 131.602 273.212 131.52 273.286C131.438 273.359 131.386 273.461 131.376 273.571L130.832 278.692C130.821 278.821 130.838 278.951 130.881 279.074C130.924 279.196 130.991 279.308 131.08 279.403C131.168 279.498 131.276 279.573 131.395 279.625C131.514 279.676 131.643 279.701 131.772 279.7C134.024 279.626 137.269 279.438 140.105 279.398C143.425 279.344 143.102 279.478 146.993 279.398C149.345 279.364 149.722 276.972 148.714 276.77C144.117 275.856 143.653 275.809 139.507 273.477C139.072 273.222 138.58 273.084 138.076 273.074Z" fill="#263238"/>
<path opacity="0.2" d="M137.652 260.427L137.834 267.288L132.108 267.382L131.92 260.514L137.652 260.427Z" fill="black"/>
<path d="M124.394 79.4976C124.172 83.7916 124.555 92.2252 121.43 94.9536C123.574 97.272 127.122 99.12 132.108 99.4291C137.095 99.7382 135.959 96.9494 134.756 95.1148C130.133 93.8716 130.959 89.7388 131.988 86.5401L124.394 79.4976Z" fill="#FF8B7B"/>
<path d="M119.253 94.2615C119.374 93.0586 120.127 90.6461 123.366 91.4794C126.605 92.3127 130.428 92.017 133.338 92.185C136.248 92.353 136.409 96.0019 136.409 96.0019L119.253 94.2615Z" fill="#F4D1A1"/>
<path d="M120.422 93.4551C127.324 93.3811 135.932 94.2211 140.582 95.6928C141.184 95.8808 141.713 96.2481 142.1 96.7453C142.486 97.2425 142.712 97.8459 142.746 98.4749C143.022 103.676 143.774 120.799 144.426 147.491L113.723 147.988C113.925 133.238 113.119 118.491 111.31 103.851C111.15 102.555 111.266 101.241 111.649 99.9929C112.033 98.7451 112.676 97.5926 113.537 96.611C114.397 95.6293 115.455 94.8407 116.642 94.2968C117.829 93.7529 119.117 93.466 120.422 93.4551Z" fill="#263238"/>
<path d="M191.517 107.132L148.973 101.545L145.572 127.445L188.117 133.031L191.517 107.132Z" fill="#F4D1A1"/>
<path opacity="0.7" d="M191.517 107.132L148.973 101.545L145.572 127.445L188.117 133.031L191.517 107.132Z" fill="white"/>
<path opacity="0.4" d="M192.051 106.953L163.167 103.222L159.816 129.167L188.7 132.898L192.051 106.953Z" fill="#F4D1A1"/>
<path d="M183.284 119.015C183.743 115.455 181.298 112.206 177.824 111.758C174.349 111.31 171.16 113.832 170.701 117.391C170.242 120.951 172.686 124.2 176.161 124.648C179.636 125.096 182.825 122.574 183.284 119.015Z" fill="white"/>
<path d="M178.707 114.395L176.341 114.089L175.317 122.013L177.683 122.319L178.707 114.395Z" fill="#F4D1A1"/>
<path d="M181.373 119.836L181.642 117.75L172.652 116.588L172.382 118.674L181.373 119.836Z" fill="#F4D1A1"/>
<path opacity="0.7" d="M157.27 102.459L154.817 102.142L153.676 110.979L156.128 111.296L157.27 102.459Z" fill="white"/>
<path opacity="0.7" d="M154.695 122.39L152.243 122.073L151.465 128.091L153.918 128.408L154.695 122.39Z" fill="white"/>
<path d="M144.735 103.226C144.883 103.898 145.085 104.718 145.266 105.47L145.844 107.782C146.254 109.321 146.671 110.853 147.134 112.365C147.598 113.877 148.068 115.376 148.613 116.841C149.157 118.306 149.701 119.744 150.34 121.115C150.656 121.787 150.978 122.459 151.321 123.131C151.489 123.467 151.67 123.803 151.845 124.098L152.121 124.562L152.255 124.79V124.757L152.181 124.669C152.131 124.61 152.077 124.554 152.02 124.501C151.827 124.318 151.598 124.176 151.348 124.085C151.249 124.037 151.141 124.012 151.032 124.011C150.951 124.011 151.086 124.092 151.281 124.112C151.864 124.131 152.447 124.088 153.021 123.984C156.073 123.344 159.083 122.516 162.033 121.504L164.156 125.254C162.802 126.387 161.369 127.422 159.869 128.352C158.307 129.325 156.655 130.146 154.936 130.805C153.918 131.192 152.858 131.458 151.778 131.598C151.038 131.701 150.287 131.701 149.547 131.598C149.031 131.51 148.528 131.358 148.048 131.148C147.435 130.869 146.875 130.485 146.395 130.012C146.265 129.884 146.142 129.749 146.026 129.609L145.858 129.394L145.764 129.259L145.555 128.97L145.152 128.352C144.897 127.962 144.628 127.573 144.386 127.183C143.889 126.397 143.425 125.604 143.002 124.804C141.344 121.665 139.955 118.392 138.849 115.02C138.298 113.36 137.8 111.7 137.357 110.013C137.135 109.18 136.927 108.333 136.732 107.48C136.537 106.626 136.376 105.806 136.201 104.859L144.735 103.226Z" fill="#FF8B7B"/>
<path d="M133.58 98.8243C130.838 103.649 138.19 119.744 138.19 119.744L149.614 115.396C149.614 115.396 149.177 107.251 146.173 100.955C143.055 94.4967 136.584 93.5357 133.58 98.8243Z" fill="#263238"/>
<path d="M169.902 119.105L167.832 119.287C166.644 119.386 165.481 119.684 164.391 120.167L161.293 121.511C161.096 121.599 160.938 121.757 160.851 121.954C160.764 122.152 160.754 122.375 160.823 122.58L162.033 126.242C162.095 126.431 162.22 126.594 162.388 126.701C162.556 126.809 162.755 126.856 162.953 126.833C164.593 126.71 166.206 126.343 167.738 125.745L170.372 124.676C170.575 124.576 170.746 124.421 170.865 124.229C170.984 124.036 171.046 123.814 171.044 123.588L171.172 120.564C171.187 120.384 171.167 120.203 171.111 120.031C171.055 119.86 170.965 119.701 170.846 119.565C170.728 119.429 170.583 119.318 170.421 119.239C170.259 119.16 170.082 119.115 169.902 119.105Z" fill="#F4D1A1"/>
<path d="M163.128 122.156C163.746 121.437 164.472 118.44 164.049 117.667C163.625 116.894 162.913 118.863 162.469 119.388C161.24 120.839 160.212 122.311 161.085 122.748C161.959 123.184 162.039 123.413 163.128 122.156Z" fill="#F4D1A1"/>
<path d="M138.358 75.9964C138.398 76.4601 138.674 76.8096 138.976 76.7827C139.279 76.7558 139.487 76.3593 139.453 75.8956C139.42 75.432 139.138 75.0825 138.835 75.1161C138.533 75.1497 138.318 75.5395 138.358 75.9964Z" fill="#263238"/>
<path d="M137.8 75.9696C138.466 77.3276 139.317 78.5872 140.327 79.7126C140.032 79.9659 139.686 80.1524 139.313 80.2591C138.939 80.3658 138.547 80.3903 138.163 80.3309L137.8 75.9696Z" fill="#FF5652"/>
<path d="M136.792 73.6311C136.746 73.6249 136.7 73.6113 136.658 73.5908C136.628 73.5717 136.601 73.5467 136.581 73.5173C136.56 73.4879 136.546 73.4547 136.538 73.4196C136.531 73.3845 136.53 73.3483 136.537 73.3131C136.544 73.2779 136.557 73.2443 136.577 73.2145C136.794 72.8362 137.099 72.5162 137.466 72.282C137.834 72.0479 138.253 71.9066 138.687 71.8705C138.723 71.8686 138.758 71.8741 138.792 71.8864C138.825 71.8988 138.856 71.9178 138.881 71.9423C138.907 71.9668 138.928 71.9963 138.942 72.029C138.956 72.0617 138.963 72.097 138.963 72.1325C138.964 72.1687 138.958 72.2047 138.945 72.2385C138.931 72.2723 138.912 72.3031 138.887 72.3294C138.862 72.3556 138.832 72.3766 138.799 72.3913C138.766 72.4059 138.73 72.4139 138.694 72.4148C138.353 72.4477 138.025 72.5612 137.736 72.7458C137.448 72.9304 137.207 73.1808 137.034 73.4765C137.012 73.522 136.978 73.5605 136.935 73.5878C136.892 73.6151 136.843 73.6301 136.792 73.6311Z" fill="#263238"/>
<path d="M122.6 75.3178C123.413 80.9492 123.608 84.289 126.706 86.9367C131.369 90.9149 138.13 87.6826 139.037 81.9034C139.836 76.7089 138.365 68.3693 132.639 66.6221C131.37 66.2348 130.023 66.1759 128.725 66.451C127.426 66.7261 126.219 67.3261 125.216 68.195C124.213 69.0639 123.447 70.1731 122.989 71.4189C122.531 72.6647 122.397 74.0062 122.6 75.3178Z" fill="#FF8B7B"/>
<path d="M136.134 78.1671C136.467 77.9667 136.752 77.6966 136.971 77.3753C137.189 77.054 137.335 76.6892 137.399 76.3059C137.463 75.9227 137.443 75.5302 137.341 75.1554C137.238 74.7806 137.056 74.4325 136.806 74.1351C135.892 73.0531 134.272 71.185 135.186 70.392C136.1 69.5991 140.804 67.9863 139.07 64.7405C137.337 61.4947 133.694 59.5056 131.275 61.9181C128.856 64.3306 128.117 63.0807 124.212 62.5901C120.308 62.0995 118.561 66.0778 119.892 67.657C121.222 69.2362 116.404 70.0291 117.983 72.1056C115.033 73.6378 117.896 78.4627 120.228 80.5392C122.559 82.6157 120.973 86.1034 124.932 87.3936C128.89 88.6839 137.921 82.656 136.134 78.1671Z" fill="#263238"/>
<path d="M135.791 85.7069C135.725 85.707 135.661 85.6897 135.604 85.6566C135.548 85.6235 135.501 85.576 135.468 85.5188C135.341 85.3105 132.391 80.2906 134.44 77.4548C135.146 76.4871 135.878 76.0301 136.631 76.1108C137.874 76.2048 138.761 77.6496 139.4 78.8928C139.445 78.982 139.453 79.0855 139.422 79.1806C139.392 79.2758 139.324 79.3548 139.235 79.4002C139.146 79.4457 139.042 79.4538 138.947 79.423C138.852 79.3921 138.773 79.3247 138.728 79.2356C138.432 78.6644 137.545 76.9306 136.564 76.8567C136.087 76.8567 135.576 77.1725 135.038 77.9117C133.278 80.3377 136.073 85.0954 136.107 85.1424C136.156 85.2292 136.17 85.3318 136.145 85.4285C136.12 85.5252 136.058 85.6082 135.972 85.6599C135.917 85.6896 135.854 85.7057 135.791 85.7069Z" fill="#F4D1A1"/>
<path d="M99.7315 271.367C99.7079 271.359 99.6875 271.343 99.673 271.323C99.6586 271.302 99.6508 271.278 99.6509 271.253C99.6486 271.225 99.6551 271.197 99.6696 271.173C99.684 271.149 99.7057 271.13 99.7315 271.118C100 270.998 102.366 269.963 103.038 270.393C103.102 270.432 103.156 270.487 103.192 270.553C103.229 270.619 103.247 270.694 103.246 270.769C103.258 270.897 103.237 271.026 103.185 271.143C103.133 271.261 103.052 271.363 102.95 271.441C102.278 271.958 100.666 271.636 99.7517 271.401L99.7315 271.367ZM102.85 270.594C102.426 270.42 101.149 270.83 100.215 271.206C101.465 271.488 102.413 271.488 102.782 271.206C102.848 271.156 102.9 271.091 102.933 271.016C102.966 270.94 102.979 270.858 102.971 270.776C102.973 270.747 102.968 270.717 102.955 270.691C102.942 270.665 102.922 270.643 102.897 270.628L102.85 270.594Z" fill="#F4D1A1"/>
<path d="M100.666 269.062C100.887 268.902 101.162 268.834 101.432 268.874C101.801 268.934 101.902 269.136 101.916 269.284C101.983 269.956 100.572 271.098 99.8323 271.374C99.8018 271.384 99.7688 271.384 99.7382 271.374H99.6979C99.6807 271.356 99.6676 271.335 99.6595 271.312C99.6513 271.289 99.6484 271.264 99.6509 271.239C99.6576 271.159 99.8995 269.62 100.666 269.062ZM101.647 269.311C101.647 269.311 101.647 269.23 101.526 269.183L101.385 269.143H101.27C101.109 269.144 100.951 269.196 100.82 269.291C100.366 269.765 100.07 270.368 99.9734 271.018C100.699 270.628 101.687 269.707 101.647 269.311Z" fill="#F4D1A1"/>
<path d="M93.959 270.789L99.4896 272.234L103.226 259.405L97.6954 257.967L93.959 270.789Z" fill="#FF8B7B"/>
<path d="M99.8861 271.125L93.8381 269.546C93.732 269.517 93.619 269.528 93.5209 269.578C93.4228 269.628 93.3466 269.712 93.3072 269.815L91.392 274.599C91.3479 274.724 91.3306 274.856 91.3412 274.987C91.3519 275.119 91.3902 275.246 91.4536 275.362C91.5171 275.477 91.6043 275.578 91.7095 275.657C91.8147 275.737 91.9355 275.793 92.064 275.822C94.2547 276.353 94.9872 276.367 97.7357 277.086C100.941 277.919 101.499 279.666 105.39 279.7C107.742 279.7 108.179 277.348 107.177 277.113C104.005 276.367 102.198 273.605 101.176 271.918C100.866 271.496 100.403 271.212 99.8861 271.125Z" fill="#263238"/>
<path opacity="0.2" d="M103.226 259.405L101.297 266.018L95.7667 264.58L97.6954 257.967L103.226 259.405Z" fill="black"/>
<path d="M107.218 202.783C110.524 181.232 109.113 160.252 113.749 147.988L134.037 147.659C134.037 147.659 125.234 186.95 121.269 204.107C117.156 221.975 104.093 263.431 104.093 263.431L95.1418 261.085C95.1418 261.085 101.956 218.326 107.218 202.783Z" fill="#F4D1A1"/>
<path opacity="0.2" d="M121.867 184.538C121.867 188.798 122.183 193.408 122.613 198.327C125.227 186.829 128.89 170.567 131.349 159.587C123.903 165.151 121.867 173.705 121.867 184.538Z" fill="black"/>
<path d="M133.204 78.7383C133.371 79.3153 133.65 79.8535 134.026 80.3218C134.402 80.7901 134.867 81.1792 135.395 81.4666C136.812 82.2327 137.888 81.0499 137.794 79.5245C137.713 78.1805 136.88 76.1175 135.307 75.9831C134.965 75.9595 134.621 76.0212 134.308 76.1629C133.995 76.3045 133.723 76.5216 133.514 76.7946C133.306 77.0677 133.168 77.3881 133.114 77.7273C133.06 78.0666 133.091 78.4139 133.204 78.7383Z" fill="#FF8B7B"/>
<path d="M138.566 77.1658C140.327 77.4816 140.582 79.2826 140.582 80.0755C140.582 80.8685 138.996 86.8896 135.771 88.032C132.545 89.1744 132.545 88.4016 133.022 87.5818C133.5 86.7619 137.841 82.6896 138.566 77.1658Z" fill="#F4D1A1"/>
<path d="M128.258 202.944C125.496 180.372 121.773 159.768 124.656 147.78L144.433 147.464C144.433 147.464 143.284 187.663 142.33 205.121C141.335 223.265 139.944 265.904 139.944 265.904L130.227 266.052C130.227 266.052 126.914 225.752 128.258 202.944Z" fill="#F4D1A1"/>
<path d="M140.549 266.139L128.997 266.32L128.345 262.577L141.221 262.174L140.549 266.139Z" fill="#263238"/>
<path d="M104.819 265.642L93.6432 262.732L94.0128 258.948L106.532 262.006L104.819 265.642Z" fill="#263238"/>
<path d="M233.628 77.3338C226.565 83.0391 224.771 92.2522 227.311 96.4253C230.926 102.359 245.455 103.932 252.343 100.363C255.548 98.6967 258.444 79.8403 249.144 76.2384C245.629 71.1648 237.619 74.1015 233.628 77.3338Z" fill="#263238"/>
<path d="M258.955 258.115L253.828 261.764L239.447 248.089L245.643 241.382L258.955 258.115Z" fill="#FFC3BD"/>
<path d="M253.082 260.461L258.276 255.656C258.36 255.562 258.477 255.505 258.603 255.496C258.728 255.487 258.852 255.528 258.948 255.609L263.028 258.915C263.127 259.01 263.205 259.124 263.257 259.251C263.308 259.378 263.333 259.514 263.328 259.651C263.324 259.788 263.291 259.923 263.231 260.046C263.171 260.169 263.086 260.278 262.98 260.366C261.146 262.013 260.185 262.718 257.9 264.835C256.496 266.132 253.714 268.955 251.772 270.749C249.829 272.543 248.102 270.843 248.761 269.936C251.724 265.85 252.235 263.525 252.585 261.442C252.642 261.07 252.816 260.726 253.082 260.461Z" fill="#263238"/>
<path d="M252.034 262.819C251.679 263.213 251.209 263.484 250.69 263.592C250.559 263.605 250.428 263.583 250.31 263.528C250.191 263.472 250.09 263.385 250.018 263.276C249.969 263.213 249.938 263.138 249.926 263.06C249.914 262.981 249.923 262.901 249.95 262.826C250.253 262.013 252.9 261.193 253.196 261.099C253.224 261.092 253.254 261.093 253.282 261.102C253.309 261.112 253.333 261.129 253.351 261.153C253.367 261.178 253.376 261.207 253.376 261.237C253.376 261.266 253.367 261.296 253.351 261.321C252.955 261.857 252.515 262.358 252.034 262.819ZM250.401 262.685C250.325 262.746 250.266 262.825 250.226 262.913C250.215 262.943 250.212 262.975 250.218 263.005C250.224 263.036 250.238 263.065 250.26 263.088C250.304 263.159 250.367 263.216 250.442 263.254C250.516 263.292 250.599 263.309 250.683 263.303C251.173 263.303 251.973 262.631 252.853 261.509C251.978 261.767 251.15 262.164 250.401 262.685Z" fill="#F4D1A1"/>
<path d="M253.344 261.341L253.29 261.374C252.524 261.65 250.602 261.724 250.233 261.153C250.145 261.018 250.105 260.796 250.38 260.481C250.576 260.257 250.85 260.117 251.147 260.091C252.141 260.01 253.304 261.079 253.351 261.126C253.369 261.143 253.382 261.164 253.389 261.188C253.396 261.211 253.397 261.236 253.391 261.26C253.38 261.29 253.364 261.317 253.344 261.341ZM250.656 260.602L250.596 260.669C250.414 260.87 250.468 260.958 250.481 260.985C250.703 261.327 252.108 261.381 252.954 261.18C252.457 260.725 251.824 260.447 251.153 260.387C250.968 260.401 250.793 260.477 250.656 260.602Z" fill="#F4D1A1"/>
<path d="M247.262 274.519L241.188 274.727L240.018 253.505L248.459 253.626L247.262 274.519Z" fill="#FFC3BD"/>
<path d="M240.771 272.792L247.592 272.745C247.706 272.739 247.819 272.779 247.904 272.856C247.99 272.933 248.042 273.04 248.049 273.155L248.459 278.531C248.461 278.671 248.436 278.81 248.385 278.941C248.334 279.072 248.257 279.191 248.16 279.292C248.063 279.393 247.946 279.474 247.818 279.53C247.689 279.586 247.551 279.617 247.41 279.619C245.038 279.619 243.902 279.465 240.905 279.485C239.057 279.485 236.349 279.707 233.802 279.727C231.255 279.747 231.289 277.227 232.364 276.992C237.189 275.937 238.036 274.519 239.756 273.161C240.045 272.932 240.402 272.802 240.771 272.792Z" fill="#263238"/>
<path d="M230.308 113.568C229.945 114.999 229.542 116.37 229.132 117.761C228.722 119.152 228.299 120.53 227.835 121.907C226.914 124.663 225.933 127.398 224.703 130.16C224.387 130.832 224.065 131.544 223.695 132.256C223.3 133.03 222.851 133.776 222.351 134.487C221.972 135.028 221.519 135.514 221.007 135.932C220.458 136.347 219.813 136.618 219.132 136.718C218.741 136.776 218.344 136.79 217.95 136.759C217.418 136.697 216.893 136.583 216.384 136.416C215.964 136.295 215.552 136.152 215.148 135.986C213.72 135.383 212.346 134.659 211.042 133.822C209.781 133.022 208.572 132.144 207.42 131.195C207.114 130.94 206.907 130.587 206.832 130.196C206.758 129.805 206.821 129.401 207.011 129.052C207.201 128.702 207.506 128.429 207.875 128.28C208.243 128.13 208.652 128.113 209.032 128.231H209.086L213.064 129.501C214.311 129.917 215.578 130.269 216.861 130.556C217.131 130.62 217.405 130.665 217.681 130.691C217.854 130.719 218.032 130.719 218.205 130.691C218.205 130.691 218.205 130.691 218.091 130.691C217.761 130.735 217.449 130.87 217.19 131.08L217.116 131.141C217.116 131.141 217.184 131.047 217.244 130.932C217.529 130.456 217.778 129.96 217.99 129.447C218.245 128.883 218.494 128.278 218.736 127.653C219.683 125.153 220.53 122.492 221.35 119.824L222.566 115.792L223.742 111.76C223.999 110.906 224.579 110.186 225.358 109.753C226.138 109.321 227.055 109.209 227.916 109.443C228.776 109.677 229.511 110.238 229.964 111.006C230.417 111.774 230.553 112.688 230.341 113.555L230.308 113.568Z" fill="#F4D1A1"/>
<path d="M204.516 123.117L202.272 122.573C202.117 122.536 201.955 122.531 201.798 122.557C201.641 122.583 201.49 122.641 201.355 122.726C201.22 122.811 201.103 122.922 201.011 123.052C200.919 123.183 200.855 123.331 200.82 123.487L200.148 126.484C200.091 126.751 200.127 127.029 200.249 127.274C200.371 127.518 200.573 127.713 200.82 127.828L204.308 129.521C205.098 130.473 206.192 131.124 207.406 131.363C207.781 131.395 208.157 131.3 208.472 131.095C208.787 130.889 209.025 130.583 209.147 130.227L209.402 129.521C209.495 129.257 209.524 128.975 209.485 128.698C209.447 128.421 209.342 128.157 209.18 127.929L206.828 124.663C206.268 123.887 205.447 123.339 204.516 123.117Z" fill="#263238"/>
<path d="M206.889 127.929C206.64 126.995 207.252 123.715 207.944 123.117C208.636 122.519 208.582 124.542 208.723 125.321C209.073 127.223 209.859 128.681 209.227 129.951C208.784 130.832 207.312 129.555 206.889 127.929Z" fill="#263238"/>
<path d="M223.191 114.112C222.889 119.448 222.876 128.224 223.662 142.746L248.123 143.546C248.721 134.434 249.305 128.486 254.554 112.278C254.788 111.568 254.865 110.816 254.781 110.074C254.696 109.331 254.451 108.616 254.064 107.977C253.676 107.338 253.154 106.791 252.535 106.374C251.915 105.956 251.212 105.678 250.475 105.558C249.131 105.343 247.645 105.148 246.14 105.027C242.451 104.638 238.739 104.516 235.032 104.664C234.024 104.725 232.982 104.812 231.968 104.913C229.648 105.148 227.489 106.204 225.88 107.891C224.271 109.578 223.317 111.784 223.191 114.112Z" fill="#F4D1A1"/>
<path d="M235.032 104.684C235.032 104.684 231.551 105.249 234.3 112.681C238.687 110.895 242.702 108.306 246.14 105.047L235.032 104.684Z" fill="white"/>
<path d="M244.001 119.333C244.352 117.507 243.319 115.773 241.694 115.461C240.068 115.148 238.466 116.375 238.114 118.201C237.763 120.027 238.796 121.76 240.421 122.073C242.047 122.386 243.649 121.159 244.001 119.333Z" fill="white"/>
<path opacity="0.2" d="M249.708 114.912C249.399 118.615 249.151 124.958 249.917 128.937C250.468 126.289 251.207 123.325 252.235 119.771L249.708 114.912Z" fill="black"/>
<path d="M246.382 92.3665C245.3 95.9549 243.896 102.554 246.14 105.047C246.14 105.047 242.411 108.132 234.851 111.303C231.981 105.511 235.032 104.684 235.032 104.684C239.124 103.851 239.34 100.861 238.943 98.0314L246.382 92.3665Z" fill="#FFC3BD"/>
<path opacity="0.2" d="M244.326 95.1553L238.95 98.0247C239.051 98.6917 239.096 99.3661 239.084 100.041C240.24 100.041 243.177 99.0394 244.205 97.1175C244.476 96.4984 244.519 95.8031 244.326 95.1553Z" fill="black"/>
<path d="M250.239 84.8737C249.567 90.8612 249.44 93.4081 246.261 96.3447C241.483 100.76 234.273 98.6497 233.124 92.595C232.089 87.1383 233.332 78.2679 239.319 76.1578C240.637 75.6861 242.054 75.5591 243.435 75.7889C244.816 76.0188 246.115 76.5979 247.209 77.4712C248.304 78.3445 249.156 79.483 249.687 80.7786C250.217 82.0742 250.407 83.4839 250.239 84.8737Z" fill="#FFC3BD"/>
<path d="M242.021 76.7491C237.895 79.128 246.772 88.3546 249.016 88.2336C252.827 85.9892 252.887 81.386 250.764 79.1885C248.64 76.9911 247.094 73.8394 242.021 76.7491Z" fill="#263238"/>
<path d="M245.871 93.8717C245.776 93.8707 245.685 93.8344 245.615 93.7699C245.546 93.7053 245.502 93.6172 245.494 93.5225C245.486 93.4278 245.513 93.3334 245.57 93.2576C245.627 93.1819 245.711 93.1301 245.804 93.1124C248.492 92.6487 250.159 91.7684 250.548 90.673C250.637 90.2683 250.617 89.8475 250.492 89.4525C250.367 89.0575 250.141 88.7022 249.836 88.4218C249.719 88.2828 249.575 88.1697 249.411 88.0899C249.248 88.01 249.07 87.9652 248.889 87.9581C247.289 87.8506 245.025 89.8801 244.185 90.6461L244.01 90.8007C243.933 90.8662 243.834 90.8987 243.733 90.8911C243.632 90.8836 243.539 90.8366 243.472 90.7604C243.44 90.7229 243.416 90.6794 243.4 90.6324C243.385 90.5854 243.379 90.5359 243.382 90.4866C243.386 90.4373 243.4 90.3892 243.422 90.3451C243.444 90.301 243.475 90.2617 243.513 90.2295L243.681 90.0749C244.689 89.1812 247.041 87.0711 248.956 87.1988C249.237 87.2114 249.513 87.2818 249.766 87.4055C250.02 87.5291 250.245 87.7035 250.428 87.9178C251.308 88.9191 251.61 89.9876 251.281 90.9284C250.784 92.3396 248.996 93.3274 245.959 93.865L245.871 93.8717Z" fill="#F4D1A1"/>
<path d="M246.483 76.2921C249.413 77.6361 235.953 77.7033 233.177 81.2448C235.489 77.7235 238.93 72.7776 246.483 76.2921Z" fill="#263238"/>
<path d="M223.662 142.746C223.662 142.746 211.048 196.412 212.171 210.168C213.515 226.249 239.413 249.332 239.413 249.332L246.805 241.268C246.805 241.268 231.168 223.601 225.201 209.771C227.136 195.948 244.447 156.576 243.714 143.405L223.662 142.746Z" fill="#F4D1A1"/>
<path opacity="0.4" d="M223.662 142.746C223.662 142.746 211.048 196.412 212.171 210.168C213.515 226.249 239.413 249.332 239.413 249.332L246.805 241.268C246.805 241.268 231.168 223.601 225.201 209.771C227.136 195.948 244.447 156.576 243.714 143.405L223.662 142.746Z" fill="white"/>
<path d="M248.364 242.243L239.514 250.206L236.907 248.573L246.577 239.387L248.364 242.243Z" fill="#F4D1A1"/>
<path opacity="0.3" d="M233.433 165.897C226.343 175.715 226 193.771 226.444 203.912C228.876 194.591 234.084 180.943 238.143 168.41C238.049 163.592 236.746 161.28 233.433 165.897Z" fill="#F4D1A1"/>
<path d="M228.231 142.538C228.231 142.538 233.191 189.027 234.77 204.913C236.638 223.776 239.38 254.016 239.38 254.016L248.459 253.64C248.459 253.64 250.475 228.003 248.969 211.109C249.238 188.691 253.156 157.409 248.123 143.559L228.231 142.538Z" fill="#F4D1A1"/>
<path opacity="0.4" d="M228.231 142.538C228.231 142.538 233.191 189.027 234.77 204.913C236.638 223.776 239.38 254.016 239.38 254.016L248.459 253.64C248.459 253.64 250.475 228.003 248.969 211.109C249.238 188.691 253.156 157.409 248.123 143.559L228.231 142.538Z" fill="white"/>
<path d="M249.144 255.286L238.735 254.99L238.009 251.718L249.782 251.388L249.144 255.286Z" fill="#F4D1A1"/>
<path d="M240.448 86.2512C240.448 86.7418 240.146 87.1248 239.83 87.1114C239.514 87.0979 239.266 86.688 239.292 86.1975C239.319 85.7069 239.595 85.3239 239.911 85.344C240.227 85.3642 240.468 85.7674 240.448 86.2512Z" fill="#263238"/>
<path d="M234.924 86.016C234.924 86.4998 234.622 86.8828 234.306 86.8694C233.99 86.856 233.742 86.446 233.769 85.9555C233.796 85.4649 234.071 85.0886 234.387 85.102C234.703 85.1155 234.945 85.5052 234.924 86.016Z" fill="#263238"/>
<path d="M234.528 85.1155L233.372 84.719C233.372 84.719 233.93 85.6665 234.528 85.1155Z" fill="#263238"/>
<path d="M236.584 86.8157C236.097 87.9098 235.461 88.9318 234.696 89.8531C234.937 90.0428 235.216 90.1777 235.514 90.2485C235.813 90.3193 236.123 90.3243 236.423 90.263L236.584 86.8157Z" fill="#ED847E"/>
<path d="M239.232 92.1917C238.959 92.2191 238.685 92.2191 238.412 92.1917C238.394 92.1917 238.375 92.188 238.358 92.181C238.341 92.1739 238.325 92.1635 238.312 92.1504C238.299 92.1373 238.289 92.1217 238.282 92.1046C238.275 92.0875 238.271 92.0691 238.271 92.0506C238.271 92.032 238.275 92.0137 238.282 91.9966C238.289 91.9795 238.299 91.9639 238.312 91.9508C238.325 91.9377 238.341 91.9273 238.358 91.9202C238.375 91.9131 238.394 91.9095 238.412 91.9095C239.017 91.9535 239.625 91.8549 240.185 91.6214C240.745 91.388 241.243 91.0263 241.638 90.5655C241.648 90.5496 241.662 90.5362 241.678 90.5259C241.694 90.5155 241.713 90.5086 241.731 90.5055C241.75 90.5023 241.77 90.503 241.788 90.5076C241.807 90.5121 241.824 90.5204 241.839 90.5319C241.865 90.5592 241.879 90.5952 241.879 90.6327C241.879 90.6701 241.865 90.7061 241.839 90.7335C241.189 91.5355 240.256 92.0574 239.232 92.1917Z" fill="#263238"/>
<path d="M251.328 90.3437C250.701 91.326 249.71 92.0195 248.573 92.2724C247.068 92.5949 246.409 91.224 246.906 89.8464C247.35 88.61 248.674 86.9501 250.152 87.2458C250.474 87.3155 250.773 87.4645 251.023 87.6793C251.272 87.894 251.464 88.1678 251.581 88.4756C251.698 88.7834 251.736 89.1155 251.692 89.4418C251.647 89.768 251.522 90.0781 251.328 90.3437Z" fill="#FFC3BD"/>
<path d="M242.028 84.5377C241.959 84.5026 241.906 84.4425 241.88 84.3697C241.788 84.0208 241.614 83.6988 241.374 83.4301C241.133 83.1614 240.832 82.9537 240.495 82.8241C240.423 82.8023 240.361 82.7526 240.325 82.686C240.288 82.6193 240.28 82.541 240.3 82.4679C240.31 82.4314 240.328 82.3972 240.351 82.3675C240.375 82.3378 240.404 82.3131 240.437 82.2949C240.47 82.2767 240.507 82.2654 240.545 82.2616C240.582 82.2579 240.62 82.2618 240.657 82.273C241.086 82.4281 241.471 82.6844 241.78 83.0201C242.089 83.3559 242.312 83.7612 242.431 84.2017C242.442 84.2378 242.446 84.2759 242.442 84.3136C242.438 84.3513 242.427 84.3879 242.409 84.4211C242.391 84.4543 242.366 84.4836 242.336 84.5071C242.307 84.5306 242.272 84.5478 242.236 84.5578C242.202 84.5698 242.165 84.5742 242.129 84.5707C242.093 84.5673 242.059 84.556 242.028 84.5377Z" fill="#263238"/>
<path d="M233.023 83.4625C232.949 83.4707 232.875 83.4516 232.814 83.4087C232.753 83.3631 232.712 83.2951 232.701 83.2196C232.69 83.144 232.709 83.067 232.754 83.0055C233.017 82.6329 233.365 82.3282 233.77 82.1167C234.174 81.9052 234.623 81.793 235.079 81.7892C235.117 81.7909 235.154 81.8001 235.188 81.8163C235.222 81.8326 235.252 81.8554 235.277 81.8836C235.302 81.9118 235.322 81.9447 235.334 81.9805C235.346 82.0162 235.351 82.054 235.348 82.0916C235.346 82.1295 235.337 82.1668 235.321 82.2012C235.305 82.2356 235.282 82.2665 235.254 82.2921C235.226 82.3177 235.193 82.3375 235.157 82.3503C235.121 82.3632 235.083 82.3689 235.045 82.3671C234.684 82.3721 234.33 82.4638 234.012 82.6346C233.694 82.8053 233.421 83.0501 233.218 83.3482C233.17 83.4106 233.1 83.4517 233.023 83.4625Z" fill="#263238"/>
<path d="M237.431 273.504C237.36 273.409 237.311 273.299 237.289 273.183C237.267 273.066 237.272 272.946 237.303 272.832C237.316 272.743 237.351 272.659 237.405 272.587C237.459 272.516 237.531 272.459 237.612 272.422C238.345 272.1 240.106 273.276 240.3 273.41C240.323 273.425 240.339 273.447 240.349 273.472C240.359 273.497 240.36 273.525 240.354 273.551C240.348 273.58 240.334 273.606 240.314 273.627C240.294 273.649 240.268 273.664 240.24 273.672C239.44 273.86 238.022 274.109 237.485 273.591C237.461 273.566 237.443 273.536 237.431 273.504ZM239.844 273.45C239.124 273 238.096 272.496 237.713 272.664C237.677 272.679 237.646 272.704 237.623 272.736C237.601 272.768 237.588 272.806 237.586 272.845C237.556 272.932 237.55 273.026 237.569 273.116C237.588 273.205 237.631 273.289 237.693 273.356C237.982 273.618 238.775 273.652 239.844 273.437V273.45Z" fill="#F4D1A1"/>
<path d="M239.42 272.953C238.988 272.517 238.746 271.927 238.748 271.313C238.779 271.2 238.845 271.1 238.937 271.027C239.029 270.954 239.142 270.913 239.259 270.91C239.366 270.89 239.477 270.897 239.581 270.93C239.685 270.963 239.78 271.021 239.857 271.098C240.468 271.676 240.368 273.423 240.361 273.497C240.357 273.522 240.348 273.546 240.334 273.567C240.32 273.588 240.302 273.605 240.28 273.618C240.259 273.63 240.234 273.636 240.21 273.636C240.185 273.636 240.161 273.63 240.139 273.618C239.865 273.437 239.622 273.212 239.42 272.953ZM239.709 271.38L239.649 271.313C239.6 271.264 239.541 271.228 239.475 271.207C239.41 271.186 239.34 271.181 239.272 271.192C239.091 271.192 239.044 271.3 239.024 271.367C238.916 271.784 239.534 272.765 240.085 273.222C240.13 272.585 240 271.948 239.709 271.38Z" fill="#F4D1A1"/>
<path d="M248.64 142.108L249.03 144.339C249.097 144.514 248.875 144.682 248.593 144.675L223.42 143.855C223.198 143.855 223.03 143.727 223.03 143.593V141.369C223.03 141.214 223.232 141.093 223.474 141.1L248.25 141.906C248.328 141.899 248.405 141.915 248.474 141.951C248.543 141.986 248.601 142.041 248.64 142.108Z" fill="white"/>
<path d="M245.025 144.796H245.697C245.831 144.796 245.939 144.729 245.939 144.648V141.792C245.939 141.711 245.831 141.637 245.697 141.631H245.025C244.89 141.631 244.783 141.691 244.783 141.779V144.661C244.783 144.722 244.89 144.796 245.025 144.796Z" fill="#F4D1A1"/>
<path opacity="0.4" d="M245.025 144.796H245.697C245.831 144.796 245.939 144.729 245.939 144.648V141.792C245.939 141.711 245.831 141.637 245.697 141.631H245.025C244.89 141.631 244.783 141.691 244.783 141.779V144.661C244.783 144.722 244.89 144.796 245.025 144.796Z" fill="white"/>
<path d="M225.268 144.151H225.94C226.074 144.151 226.182 144.084 226.182 144.003V141.12C226.182 141.033 226.074 140.959 225.94 140.959H225.268C225.133 140.959 225.026 141.019 225.026 141.107V143.989C225.026 144.077 225.12 144.151 225.268 144.151Z" fill="#F4D1A1"/>
<path opacity="0.4" d="M225.268 144.151H225.94C226.074 144.151 226.182 144.084 226.182 144.003V141.12C226.182 141.033 226.074 140.959 225.94 140.959H225.268C225.133 140.959 225.026 141.019 225.026 141.107V143.989C225.026 144.077 225.12 144.151 225.268 144.151Z" fill="white"/>
<path d="M235.146 144.48H235.818C235.953 144.48 236.06 144.413 236.06 144.332V141.449C236.06 141.362 235.953 141.288 235.818 141.288H235.146C235.012 141.288 234.904 141.349 234.904 141.436V144.319C234.904 144.399 235.012 144.48 235.146 144.48Z" fill="#F4D1A1"/>
<path opacity="0.4" d="M235.146 144.48H235.818C235.953 144.48 236.06 144.413 236.06 144.332V141.449C236.06 141.362 235.953 141.288 235.818 141.288H235.146C235.012 141.288 234.904 141.349 234.904 141.436V144.319C234.904 144.399 235.012 144.48 235.146 144.48Z" fill="white"/>
<path d="M254.607 109.287C255.528 113.205 256.26 117.062 256.832 121.027C257.114 123.043 257.383 124.999 257.544 127.028C257.741 129.123 257.795 131.229 257.705 133.332C257.665 133.896 257.611 134.467 257.517 135.079C257.477 135.381 257.403 135.71 257.342 136.026L257.201 136.557C257.141 136.786 257.064 137.011 256.973 137.229C256.712 137.869 256.313 138.443 255.804 138.909C255.387 139.286 254.916 139.596 254.406 139.83C253.677 140.152 252.901 140.354 252.108 140.428C250.921 140.533 249.726 140.504 248.546 140.341C247.49 140.203 246.443 140.01 245.408 139.763C241.477 138.794 237.651 137.444 233.984 135.731C233.601 135.558 233.296 135.25 233.127 134.866C232.958 134.482 232.937 134.049 233.068 133.65C233.199 133.252 233.473 132.916 233.836 132.707C234.2 132.498 234.628 132.431 235.039 132.518H235.092C238.822 133.311 242.652 134.071 246.315 134.481C247.222 134.581 248.129 134.642 249.003 134.662C249.765 134.695 250.529 134.646 251.281 134.514C251.463 134.488 251.637 134.424 251.792 134.326C251.792 134.326 251.724 134.326 251.61 134.434C251.456 134.563 251.334 134.726 251.254 134.911C251.194 135.079 251.254 134.911 251.254 134.911V134.729L251.315 134.239C251.315 133.876 251.355 133.479 251.362 133.063C251.329 131.264 251.192 129.469 250.952 127.687C250.71 125.825 250.448 123.95 250.118 122.069C249.446 118.319 248.714 114.502 247.934 110.793V110.752C247.774 109.882 247.958 108.983 248.447 108.245C248.936 107.507 249.691 106.987 250.555 106.795C251.419 106.603 252.324 106.753 253.08 107.214C253.836 107.675 254.383 108.411 254.607 109.267V109.287Z" fill="#F4D1A1"/>
<path d="M230.153 127.767L228.104 127.418C227.946 127.392 227.786 127.398 227.631 127.435C227.476 127.472 227.33 127.539 227.201 127.633C227.072 127.726 226.963 127.845 226.88 127.981C226.798 128.117 226.743 128.268 226.719 128.426L226.269 131.463C226.23 131.729 226.282 132.001 226.416 132.233C226.55 132.466 226.759 132.647 227.008 132.747L230.604 134.198C230.604 134.198 233.56 136.51 235.906 135.415V132.908L232.962 129.374C232.245 128.523 231.25 127.954 230.153 127.767Z" fill="#263238"/>
<path d="M240.052 85.3776L238.896 84.9811C238.896 84.9811 239.454 85.9286 240.052 85.3776Z" fill="#263238"/>
<path d="M244.91 90.5923L246.033 92.9511C246.112 93.1065 246.142 93.2821 246.12 93.4551C245.986 94.7319 248.176 99.6711 236.141 99.12C232.606 98.952 232.183 92.2051 232.546 90.0816C232.571 89.9055 232.649 89.7411 232.769 89.6094C232.888 89.4777 233.045 89.3847 233.218 89.3424L235.812 88.7779C235.918 88.7612 236.027 88.7612 236.134 88.7779L244.238 90.1219C244.38 90.1399 244.515 90.1921 244.633 90.2741C244.75 90.356 244.845 90.4653 244.91 90.5923Z" fill="#F4D1A1"/>
</svg>
