<svg width="336" height="336" viewBox="0 0 336 336" fill="none" xmlns="http://www.w3.org/2000/svg">
<path d="M170.5 323C256.933 323 327 301.51 327 275C327 248.49 256.933 227 170.5 227C84.0674 227 14 248.49 14 275C14 301.51 84.0674 323 170.5 323Z" fill="#F5F5F5"/>
<path d="M295.216 103.065C295.398 101.984 295.341 100.876 295.048 99.8193C294.755 98.7629 294.234 97.7836 293.521 96.9505C292.809 96.1174 291.922 95.4508 290.924 94.9978C289.925 94.5448 288.84 94.3164 287.744 94.3286C287.332 94.3301 286.92 94.3661 286.514 94.4361C285.646 92.9867 284.372 91.8234 282.85 91.0898C281.328 90.3562 279.624 90.0845 277.95 90.3082C276.275 90.5319 274.702 91.2413 273.426 92.3487C272.15 93.4561 271.226 94.913 270.769 96.5395C270.229 96.3743 269.667 96.2905 269.102 96.2909C267.612 96.2909 266.184 96.8828 265.13 97.9363C264.076 98.9899 263.484 100.419 263.484 101.909C263.486 102.306 263.529 102.703 263.612 103.092L295.216 103.065Z" fill="#F0F0F0"/>
<path d="M97.44 73.1539C97.5515 72.4875 97.6099 71.8134 97.6147 71.1379C97.6147 67.6821 96.2419 64.3678 93.7983 61.9242C91.3547 59.4806 88.0404 58.1078 84.5846 58.1078C83.8773 58.1125 83.1716 58.1755 82.4746 58.2959C80.9842 55.806 78.7973 53.807 76.1838 52.5457C73.5704 51.2844 70.6448 50.816 67.7682 51.1984C64.8916 51.5807 62.19 52.7971 59.9967 54.6973C57.8035 56.5975 56.2148 59.0983 55.4266 61.8911C53.8148 61.386 52.0987 61.3131 50.4499 61.6796C48.8011 62.0462 47.2775 62.8394 46.0316 63.9798C44.7857 65.1202 43.8612 66.5679 43.3506 68.1779C42.84 69.788 42.7613 71.5038 43.1222 73.1539H97.44Z" fill="#F0F0F0"/>
<path d="M336 256.973H0V257.141H336V256.973Z" fill="#EBEBEB"/>
<path d="M302.333 267.785H280.076V267.953H302.333V267.785Z" fill="#EBEBEB"/>
<path d="M222.58 269.613H216.74V269.781H222.58V269.613Z" fill="#EBEBEB"/>
<path d="M279.404 261.549H266.508V261.717H279.404V261.549Z" fill="#EBEBEB"/>
<path d="M64.2768 262.678H35.2531V262.846H64.2768V262.678Z" fill="#EBEBEB"/>
<path d="M74.5181 262.678H70.2643V262.846H74.5181V262.678Z" fill="#EBEBEB"/>
<path d="M151.301 265.514H88.3478V265.682H151.301V265.514Z" fill="#EBEBEB"/>
<path d="M159.264 227.002H29.5075C28.491 227 27.5168 226.595 26.7986 225.875C26.0805 225.156 25.6771 224.181 25.6771 223.164V40.7635C25.686 39.7528 26.0932 38.7864 26.8104 38.0743C27.5276 37.3621 28.4968 36.9617 29.5075 36.96H159.264C160.282 36.96 161.258 37.3642 161.977 38.0838C162.697 38.8034 163.101 39.7794 163.101 40.7971V223.164C163.101 224.182 162.697 225.158 161.977 225.878C161.258 226.597 160.282 227.002 159.264 227.002ZM29.5075 37.0944C28.5356 37.0961 27.604 37.4835 26.9174 38.1714C26.2308 38.8593 25.8451 39.7915 25.8451 40.7635V223.164C25.8451 224.136 26.2308 225.069 26.9174 225.757C27.604 226.444 28.5356 226.832 29.5075 226.834H159.264C160.237 226.832 161.169 226.445 161.857 225.757C162.544 225.069 162.931 224.137 162.933 223.164V40.7635C162.931 39.7909 162.544 38.8587 161.857 38.171C161.169 37.4833 160.237 37.0961 159.264 37.0944H29.5075Z" fill="#EBEBEB"/>
<path d="M304.624 227.002H174.861C173.844 227 172.869 226.595 172.15 225.876C171.431 225.157 171.026 224.182 171.024 223.164V40.7635C171.035 39.7522 171.443 38.7858 172.162 38.0739C172.88 37.3619 173.85 36.9617 174.861 36.96H304.624C305.634 36.9635 306.601 37.3647 307.317 38.0766C308.033 38.7886 308.439 39.754 308.448 40.7635V223.164C308.448 224.18 308.046 225.154 307.329 225.873C306.612 226.592 305.64 226.998 304.624 227.002ZM174.861 37.0944C173.889 37.0961 172.956 37.4833 172.269 38.171C171.581 38.8587 171.194 39.7909 171.192 40.7635V223.164C171.194 224.137 171.581 225.069 172.269 225.757C172.956 226.445 173.889 226.832 174.861 226.834H304.624C305.597 226.832 306.529 226.445 307.217 225.757C307.905 225.069 308.292 224.137 308.293 223.164V40.7635C308.292 39.7909 307.905 38.8587 307.217 38.171C306.529 37.4833 305.597 37.0961 304.624 37.0944H174.861Z" fill="#EBEBEB"/>
<path d="M25.4755 237.525V192.851H46.993V180.634H57.2947V144.729L70.6003 131.423H97.6147V169.895H134.676V177.495H160.877V167.509H189.027V159.983H211.008V115.416H249.924V143.815H258.881V154.103H279.707V170.977H290.835L299.396 179.538V188.247H307.924V237.525H25.4755Z" fill="#F0F0F0"/>
<path d="M51.6835 192.851H47.3626L46.993 192.595V192.851H25.4755V237.525H51.6835V192.851Z" fill="#E6E6E6"/>
<path d="M161.253 170.762V177.495H160.191L159.062 184.699L162.254 237.525H197.756V167.509H189.403H161.757L161.253 170.762Z" fill="#E6E6E6"/>
<path d="M243.902 154.103V237.525H308.293V188.247H299.766V179.538L291.204 170.977H280.076V154.103H261.173H259.251H243.902Z" fill="#E6E6E6"/>
<path d="M291.245 175.506H287.354V179.397H291.245V175.506Z" fill="white"/>
<path d="M284.37 175.506H280.479V179.397H284.37V175.506Z" fill="white"/>
<path d="M291.245 182.757H287.354V186.648H291.245V182.757Z" fill="white"/>
<path d="M284.37 182.757H280.479V186.648H284.37V182.757Z" fill="white"/>
<path d="M269.996 157.241H266.105V161.132H269.996V157.241Z" fill="white"/>
<path d="M263.122 157.241H259.231V161.132H263.122V157.241Z" fill="white"/>
<path d="M47.1677 199.147H43.2768V203.038H47.1677V199.147Z" fill="white"/>
<path d="M40.2931 199.147H36.4022V203.038H40.2931V199.147Z" fill="white"/>
<path d="M193.274 182.838V178.947H189.383V182.838H193.274Z" fill="white"/>
<path d="M193.274 175.963V172.072H189.383V175.963H193.274Z" fill="white"/>
<path d="M166.696 287.32C238.656 287.32 296.99 283.914 296.99 279.713C296.99 275.512 238.656 272.106 166.696 272.106C94.7369 272.106 36.4022 275.512 36.4022 279.713C36.4022 283.914 94.7369 287.32 166.696 287.32Z" fill="#F5F5F5"/>
<path d="M298.052 246.584H261.341V276.945H298.052V246.584Z" fill="#F4D1A1"/>
<path opacity="0.3" d="M298.052 246.584H261.341V276.945H298.052V246.584Z" fill="white"/>
<path d="M270.393 246.584H241.94V276.945H270.393V246.584Z" fill="#F4D1A1"/>
<path opacity="0.1" d="M270.393 246.584H241.94V276.945H270.393V246.584Z" fill="white"/>
<path opacity="0.3" d="M260.192 246.584H252.141V256.032H260.192V246.584Z" fill="white"/>
<path opacity="0.1" d="M290.23 246.584H282.18V256.032H290.23V246.584Z" fill="black"/>
<path d="M282.616 264.452H281.555C281.538 264.143 281.538 263.834 281.555 263.525C281.555 263.041 281.924 262.107 282.596 262.53C282.805 262.658 283.046 262.362 282.838 262.235C282.688 262.144 282.517 262.092 282.341 262.084C282.166 262.075 281.991 262.111 281.832 262.187C281.674 262.263 281.536 262.377 281.433 262.519C281.329 262.661 281.263 262.827 281.239 263.001C281.149 263.475 281.126 263.959 281.172 264.439H280.56C280.318 264.439 280.251 264.808 280.5 264.815H281.172C281.172 265.406 281.172 265.998 281.172 266.589C281.172 266.838 281.555 266.791 281.555 266.549C281.555 265.971 281.555 265.4 281.555 264.822H282.549C282.798 264.835 282.865 264.459 282.616 264.452Z" fill="white"/>
<path d="M284.377 263.619C284.351 263.612 284.323 263.612 284.296 263.619C282.556 263.491 282.831 266.341 284.498 266.307C284.854 266.256 285.178 266.074 285.408 265.797C285.638 265.52 285.757 265.168 285.741 264.808C285.747 264.635 285.713 264.463 285.644 264.304C285.575 264.146 285.471 264.004 285.341 263.89C285.21 263.777 285.056 263.693 284.889 263.646C284.723 263.599 284.548 263.59 284.377 263.619ZM284.639 265.897C283.382 266.226 282.979 263.881 284.269 264.022C284.309 264.033 284.351 264.033 284.39 264.022C285.6 263.841 285.6 265.642 284.639 265.897Z" fill="white"/>
<path d="M288.53 264.325C288.013 262.645 285.405 264.022 286.151 265.554C286.342 265.855 286.635 266.076 286.976 266.176C287.317 266.276 287.683 266.249 288.006 266.099C288.167 266.036 288.313 265.939 288.433 265.813C288.552 265.688 288.642 265.537 288.696 265.372C288.75 265.208 288.767 265.033 288.745 264.861C288.723 264.689 288.664 264.524 288.57 264.378L288.53 264.325ZM286.454 265.286C286.097 264.264 287.798 263.27 288.174 264.479C288.178 264.5 288.187 264.52 288.2 264.538C288.212 264.555 288.229 264.57 288.248 264.58C288.906 265.756 286.816 266.347 286.454 265.286Z" fill="white"/>
<path d="M291.446 266.179C291.332 264.634 291.225 263.088 291.11 261.549C291.11 261.301 290.714 261.348 290.727 261.589L290.869 263.538C290.665 263.472 290.448 263.454 290.236 263.484C290.024 263.515 289.822 263.593 289.645 263.714C289.468 263.834 289.321 263.994 289.215 264.18C289.109 264.366 289.047 264.574 289.034 264.788C288.98 265.83 290.19 266.186 291.05 266.072V266.22C291.084 266.461 291.467 266.421 291.446 266.179ZM289.43 264.956C289.419 264.788 289.449 264.62 289.518 264.466C289.587 264.313 289.692 264.178 289.824 264.074C289.956 263.97 290.112 263.9 290.278 263.87C290.443 263.84 290.614 263.851 290.774 263.901C290.812 263.911 290.851 263.911 290.889 263.901C290.936 264.493 290.976 265.084 291.023 265.682C290.438 265.763 289.518 265.642 289.417 264.956H289.43Z" fill="white"/>
<path d="M167.98 64.1827H77.2934C71.7264 64.1827 67.2134 68.6957 67.2134 74.2627V263.458C67.2134 269.025 71.7264 273.538 77.2934 273.538H167.98C173.547 273.538 178.06 269.025 178.06 263.458V74.2627C178.06 68.6957 173.547 64.1827 167.98 64.1827Z" fill="#263238"/>
<path d="M170.896 78.1401H74.3837V246.516H170.896V78.1401Z" fill="#F4D1A1"/>
<path opacity="0.3" d="M170.896 229.824H74.3837V246.51H170.896V229.824Z" fill="white"/>
<path opacity="0.1" d="M170.896 147.423C146.362 171.824 100.928 217.466 74.3837 244.191V246.543H128.312L170.896 203.965V147.423Z" fill="white"/>
<path opacity="0.1" d="M74.3837 162.812L159.056 78.1401H119.461C108.978 88.5427 91.0694 106.485 74.3837 123.231V162.812Z" fill="white"/>
<path opacity="0.1" d="M74.3837 198.206L170.896 101.694V81.0432L74.3837 177.549V198.206Z" fill="white"/>
<path opacity="0.2" d="M170.896 78.1401H74.3837V85.7337H170.896V78.1401Z" fill="black"/>
<path d="M123.704 264.56C127.291 263.978 129.726 260.599 129.144 257.012C128.562 253.426 125.183 250.99 121.596 251.572C118.01 252.155 115.574 255.534 116.156 259.12C116.739 262.707 120.118 265.142 123.704 264.56Z" fill="#F4D1A1"/>
<g opacity="0.6">
<path opacity="0.6" d="M84.8198 83.6775H86.2781V81.7287H84.8198V83.6775Z" fill="white"/>
<path opacity="0.6" d="M82.441 83.6775H83.8992V81.0836H82.441V83.6775Z" fill="white"/>
<path opacity="0.6" d="M80.0621 83.6775H81.5203V80.4317H80.0621V83.6775Z" fill="white"/>
<path opacity="0.6" d="M77.6832 83.6775H79.1414V79.7799H77.6832V83.6775Z" fill="white"/>
</g>
<path opacity="0.6" d="M160.655 81.0164H159.788V82.9652H160.655V81.0164Z" fill="white"/>
<path opacity="0.6" d="M161.253 83.6775H168.155V80.3108H161.253V83.6775Z" fill="white"/>
<path opacity="0.4" d="M127.445 178.752C125.234 176.736 122.64 179.424 122.64 179.424C122.64 179.424 120.053 176.736 117.835 178.718C114.677 181.548 119.267 186.608 122.64 187.622C126.013 186.635 130.603 181.574 127.445 178.752Z" fill="white"/>
<path d="M150.279 192.864H95.0006C93.3289 192.864 91.7256 193.528 90.5435 194.71C89.3614 195.892 88.6973 197.496 88.6973 199.167C88.6973 200.839 89.3614 202.442 90.5435 203.625C91.7256 204.807 93.3289 205.471 95.0006 205.471H150.279C151.951 205.471 153.554 204.807 154.736 203.625C155.919 202.442 156.583 200.839 156.583 199.167C156.583 197.496 155.919 195.892 154.736 194.71C153.554 193.528 151.951 192.864 150.279 192.864Z" fill="white"/>
<path d="M104.409 202.521V195.834H106.848C107.336 195.826 107.821 195.917 108.273 196.103C108.66 196.265 109.008 196.508 109.294 196.815C109.569 197.123 109.778 197.485 109.906 197.877C110.201 198.749 110.201 199.693 109.906 200.565C109.76 200.961 109.531 201.321 109.234 201.62C108.939 201.911 108.59 202.139 108.205 202.292C107.777 202.458 107.321 202.54 106.861 202.534L104.409 202.521ZM108.783 199.161C108.784 198.863 108.741 198.566 108.656 198.28C108.574 198.033 108.444 197.805 108.273 197.608C108.102 197.412 107.888 197.258 107.648 197.158C107.385 197.046 107.1 196.991 106.814 196.997H105.692V201.398H106.848C107.139 201.404 107.428 201.347 107.695 201.23C107.93 201.123 108.139 200.964 108.306 200.767C108.478 200.558 108.608 200.319 108.689 200.061C108.765 199.77 108.797 199.468 108.783 199.167V199.161Z" fill="#E0E0E0"/>
<path d="M113.911 202.568C113.446 202.576 112.987 202.477 112.567 202.279C112.18 202.094 111.835 201.834 111.552 201.513C110.98 200.87 110.663 200.041 110.658 199.181C110.656 198.741 110.741 198.305 110.907 197.897C111.062 197.498 111.29 197.131 111.579 196.815C111.87 196.5 112.222 196.246 112.614 196.069C113.02 195.881 113.463 195.787 113.911 195.794C114.365 195.786 114.814 195.888 115.221 196.09C115.617 196.286 115.969 196.56 116.256 196.896C116.545 197.217 116.773 197.588 116.928 197.991C117.085 198.385 117.165 198.805 117.163 199.228C117.165 199.665 117.083 200.099 116.921 200.505C116.765 200.901 116.537 201.265 116.249 201.58C115.961 201.894 115.611 202.146 115.221 202.319C114.809 202.5 114.361 202.585 113.911 202.568ZM111.989 199.208C111.989 199.491 112.035 199.772 112.123 200.041C112.206 200.301 112.334 200.544 112.5 200.76C112.668 200.963 112.873 201.132 113.104 201.257C113.359 201.384 113.64 201.449 113.924 201.445C114.212 201.45 114.495 201.383 114.751 201.251C114.986 201.124 115.192 200.95 115.356 200.74C115.519 200.523 115.644 200.28 115.725 200.021C115.811 199.758 115.854 199.484 115.853 199.208C115.853 198.922 115.808 198.639 115.718 198.368C115.636 198.107 115.506 197.863 115.335 197.649C115.172 197.443 114.966 197.276 114.731 197.158C114.474 197.036 114.194 196.973 113.911 196.973C113.627 196.973 113.347 197.036 113.091 197.158C112.856 197.285 112.65 197.459 112.486 197.669C112.324 197.884 112.199 198.125 112.116 198.381C112.036 198.64 111.993 198.91 111.989 199.181V199.208Z" fill="#E0E0E0"/>
<path d="M119.428 198.24V202.521H118.138V195.834H119.139L122.586 200.222V195.848H123.876V202.521H122.835L119.428 198.24Z" fill="#E0E0E0"/>
<path d="M127.142 195.834H128.278L130.798 202.521H129.454L128.836 200.854H126.524L125.919 202.521H124.575L127.142 195.834ZM128.628 199.94L127.714 197.313L126.759 199.94H128.628Z" fill="#E0E0E0"/>
<path d="M135.825 196.977H133.728V202.521H132.451V196.977H130.334V195.834H135.845L135.825 196.977Z" fill="#E0E0E0"/>
<path d="M141.248 201.378V202.521H136.644V195.834H141.16V196.977H137.935V198.583H140.724V199.638H137.935V201.378H141.248Z" fill="#E0E0E0"/>
<path opacity="0.3" d="M178.067 123.91L157.819 126.793L163.108 164.412L178.067 162.893V123.91Z" fill="#263238"/>
<path opacity="0.7" d="M123.574 170.97C144.157 170.97 160.843 154.284 160.843 133.701C160.843 113.118 144.157 96.432 123.574 96.432C102.991 96.432 86.305 113.118 86.305 133.701C86.305 154.284 102.991 170.97 123.574 170.97Z" fill="white"/>
<path d="M136.94 110.914C136.94 110.914 144.554 122.176 148.828 122.633C153.102 123.09 169.821 108.709 169.821 108.709L172.657 111.162C172.657 111.162 156.751 128.634 150.111 129.656C143.472 130.677 130.852 117.519 130.852 117.519L136.94 110.914Z" fill="#E4897B"/>
<path d="M135.126 111.754C135.126 111.754 137.814 109.119 141.51 113.696C145.206 118.272 146.724 119.206 146.724 119.206L137.316 128.392C137.316 128.392 131.786 114.2 135.126 111.754Z" fill="#F4D1A1"/>
<path d="M168.497 107.668C168.497 107.668 168.827 103.441 169.808 103.172C170.789 102.903 170.439 106.028 170.439 106.028C170.439 106.028 175.614 102.87 176.655 103.152C177.697 103.434 177.529 105.477 177.327 106.028C175.748 110.732 170.103 112.681 170.103 112.681L167.825 110.531L168.497 107.668Z" fill="#E4897B"/>
<path d="M129.696 99.7316C129.696 99.7316 134.891 108.387 133.298 113.844C131.705 119.3 123.514 114.395 123.514 114.395L123.614 103.643L129.696 99.7316Z" fill="#263238"/>
<path d="M115.765 84.8131C115.765 84.8131 108.084 88.704 111.102 102.393C116.155 125.341 123.614 115.833 123.614 115.833C123.614 115.833 123.285 106.788 120.254 102.393C117.224 97.9978 117.855 91.728 117.855 91.728L115.765 84.8131Z" fill="#263238"/>
<path d="M138.042 145.441L115.013 147.457C114.79 141.749 113.967 136.079 112.56 130.543C112.009 128.339 111.324 125.872 110.436 123.03C109.959 121.504 109.435 119.871 108.851 118.117C108.414 116.773 107.937 115.369 107.412 113.87C110.541 112.87 113.736 112.096 116.975 111.552C120.389 110.941 123.844 110.577 127.31 110.463C131.793 110.423 136.94 110.927 136.94 110.927C136.94 110.927 137.673 111.102 138.136 115.853C138.553 120.288 138.963 129.219 138.042 145.441Z" fill="#F4D1A1"/>
<path opacity="0.2" d="M138.042 145.441L115.013 147.457C114.79 141.749 113.967 136.079 112.56 130.543C112.009 128.339 111.324 125.872 110.436 123.03C109.959 121.504 109.435 119.871 108.851 118.117C108.414 116.773 107.937 115.369 107.412 113.87C110.541 112.87 113.736 112.096 116.975 111.552C120.389 110.941 123.844 110.577 127.31 110.463C131.793 110.423 136.94 110.927 136.94 110.927C136.94 110.927 137.673 111.102 138.136 115.853C138.553 120.288 138.963 129.219 138.042 145.441Z" fill="white"/>
<path opacity="0.2" d="M114.912 145.703C118.601 144.265 130.764 138.311 130.764 138.311L114.636 141.953C114.71 143.176 114.811 144.413 114.912 145.703Z" fill="black"/>
<path d="M125.415 115.53C119.737 114.805 118.023 112.385 118.023 112.385C121.625 108.985 118.635 103.098 118.635 103.098L125.462 104.375C125.306 105.326 125.219 106.287 125.2 107.251C125.147 111.397 127.021 111.438 127.021 111.438C128.224 113.682 125.415 115.53 125.415 115.53Z" fill="#E4897B"/>
<path opacity="0.2" d="M125.469 104.375C125.313 105.326 125.225 106.287 125.207 107.251C120.59 107.251 118.642 103.098 118.642 103.098L125.469 104.375Z" fill="black"/>
<path d="M122.405 85.2499C128.345 84.9207 129.689 87.7699 130.469 93.865C131.436 101.485 130.066 107.258 122.553 106.035C114.307 104.691 111.996 91.6339 116.955 86.641C118.117 85.4583 120.516 85.344 122.405 85.2499Z" fill="#E4897B"/>
<path d="M126.632 94.6378C127.155 95.4983 127.78 96.2925 128.493 97.0033C128.334 97.2585 128.107 97.4647 127.838 97.5987C127.569 97.7328 127.267 97.7895 126.968 97.7626L126.632 94.6378Z" fill="#DE5753"/>
<path d="M123.036 93.9523C123.287 93.8253 123.49 93.6201 123.614 93.3677L122.586 93.8649C122.436 93.9521 122.317 94.0836 122.245 94.2412C122.173 94.3988 122.151 94.5749 122.183 94.7453C122.217 95.2358 122.512 95.6054 122.855 95.5853C123.198 95.5651 123.413 95.1418 123.379 94.6579C123.363 94.3867 123.239 94.133 123.036 93.9523Z" fill="#263238"/>
<path d="M128.802 93.408C129.053 93.2809 129.256 93.0758 129.38 92.8234L128.359 93.3206C128.208 93.4094 128.089 93.5419 128.016 93.7003C127.942 93.8587 127.919 94.0357 127.949 94.2077C127.989 94.6982 128.285 95.0678 128.621 95.041C128.957 95.0141 129.179 94.6042 129.138 94.1136C129.134 93.9792 129.102 93.8471 129.044 93.7256C128.986 93.6042 128.904 93.4961 128.802 93.408Z" fill="#263238"/>
<path d="M123.03 91.2105C122.557 91.1804 122.084 91.2585 121.646 91.4391C121.208 91.6196 120.817 91.8977 120.503 92.2521" stroke="#263238" stroke-width="0.707336" stroke-linecap="round" stroke-linejoin="round"/>
<path d="M126.638 90.9687C127.004 90.7625 127.411 90.6416 127.83 90.6148C128.249 90.588 128.669 90.6562 129.058 90.8141" stroke="#263238" stroke-width="0.707336" stroke-linecap="round" stroke-linejoin="round"/>
<path d="M112.768 113.01C112.768 113.01 119.435 118.42 125.637 118.332C131.84 118.245 134.024 111.27 134.024 111.27C134.024 111.27 124.401 108.42 112.768 113.01Z" fill="#E4897B"/>
<path d="M102.964 126.517C102.964 126.517 100.867 138.882 101.116 142.404C101.364 145.925 106.687 146.032 109.684 145.676C113.131 145.266 131.107 138.156 131.107 138.156L130.274 134.602C130.274 134.602 116.202 138.432 110.208 139.104C109.928 139.133 109.645 139.097 109.381 139C109.117 138.902 108.878 138.746 108.684 138.542C108.489 138.339 108.344 138.093 108.259 137.825C108.173 137.557 108.151 137.272 108.192 136.994L109.583 127.814L102.964 126.517Z" fill="#E4897B"/>
<path d="M107.412 113.844C107.412 113.844 111.088 113.03 111.801 118.87C112.232 122.406 111.77 125.994 110.457 129.306L101.143 127.626C101.143 127.626 103.286 114.146 107.412 113.844Z" fill="#F4D1A1"/>
<path d="M134.864 131.04C134.634 130.901 134.363 130.846 134.098 130.885C132.996 131.168 129.649 134.481 129.454 134.917L130.314 138.056C130.314 138.056 132.075 138.997 132.928 138.728C133.782 138.459 138.109 135.274 138.116 134.508C138.121 134.465 138.121 134.422 138.116 134.38C138.271 134.266 138.398 134.172 138.486 134.118C139.218 133.661 136.51 131.638 134.864 131.04Z" fill="#E4897B"/>
<path d="M122.055 85.2701C122.055 85.2701 122.815 92.7159 116.605 92.9847C110.396 93.2535 115.584 86.3117 115.584 86.3117L122.055 85.2701Z" fill="#263238"/>
<path d="M120.725 82.9718C110.517 83.2944 111.364 98.2262 116.881 102.393C116.881 102.393 114.193 98.7773 115.752 95.6323C115.752 95.6323 117.768 90.767 117.096 87.024C118.674 86.3391 120.35 85.906 122.062 85.7405C123.211 87.1382 126.094 91.3853 129.871 91.2979C130.089 91.9564 130.257 92.6303 130.375 93.3139C130.375 93.3139 130.946 82.656 120.725 82.9718Z" fill="#263238"/>
<path d="M128.177 100.625C127.6 100.933 126.958 101.099 126.304 101.111C125.65 101.122 125.002 100.979 124.414 100.693C124.398 100.683 124.383 100.671 124.371 100.656C124.36 100.642 124.351 100.625 124.346 100.606C124.341 100.588 124.34 100.569 124.342 100.551C124.345 100.532 124.351 100.514 124.36 100.498C124.368 100.482 124.379 100.467 124.393 100.456C124.406 100.444 124.422 100.436 124.439 100.431C124.456 100.425 124.474 100.424 124.492 100.426C124.51 100.429 124.527 100.435 124.542 100.444C125.089 100.706 125.691 100.836 126.298 100.823C126.905 100.81 127.5 100.655 128.036 100.37C128.068 100.353 128.106 100.349 128.141 100.359C128.176 100.369 128.206 100.392 128.224 100.424C128.241 100.455 128.245 100.492 128.235 100.526C128.225 100.56 128.202 100.588 128.171 100.605L128.177 100.625Z" fill="#263238"/>
<path d="M116.794 96.8352C116.699 96.1511 116.336 95.5326 115.785 95.1156C115.235 94.6986 114.541 94.517 113.857 94.6108C112.029 94.9065 111.357 98.7369 115.987 99.3955C116.646 99.4896 116.982 98.8243 116.794 96.8352Z" fill="#E4897B"/>
<path d="M116.101 123.991L122.284 123.117C122.284 123.117 124.3 129.71 120.631 130.415C116.619 131.195 116.101 123.991 116.101 123.991Z" fill="#F4D1A1"/>
<path d="M139.393 159.513C139.084 156.462 138.6 152.309 137.982 149.043L138.042 145.441L115.013 147.457L114.804 150.817C114.267 151.811 111.915 156.737 110.853 168.786C115.642 170.524 120.737 171.261 125.822 170.954C130.908 170.646 135.876 169.3 140.421 166.999L139.393 159.513Z" fill="#263238"/>
<path d="M197.797 148.391L186.084 151.361C185.179 150.802 184.104 150.582 183.053 150.743C181.393 151.052 177.24 154.446 177.401 154.943C177.563 155.44 182.569 157.745 183.288 157.557C185.869 156.885 188.53 153.881 188.53 153.881L198.999 151.724L197.797 148.391Z" fill="#E4897B"/>
<path d="M227.136 106.27C224.757 108.803 218.454 108.588 218.454 108.588C218.454 108.588 216.377 108.77 215.86 107.009C218.138 106.445 218.487 104.805 218.844 103.387C219.019 102.511 219.019 101.609 218.844 100.733C218.77 100.239 218.667 99.7494 218.534 99.2678L225.852 92.9039C225.174 96.7679 224.448 103.716 227.136 106.27Z" fill="#E4897B"/>
<path opacity="0.2" d="M224.387 96.7008C224.448 101.405 220.718 102.977 218.864 103.387C219.039 102.511 219.039 101.609 218.864 100.733L224.387 96.7008Z" fill="black"/>
<path d="M224.992 97.7357C224.281 98.9948 223.175 99.9853 221.846 100.555C220.516 101.124 219.036 101.241 217.634 100.887C215.81 100.469 214.216 99.3675 213.179 97.8096C213.03 97.5946 212.895 97.3701 212.775 97.1376C210.524 92.8503 209.308 85.1424 213.77 81.8631C214.751 81.1269 215.905 80.6553 217.121 80.4935C218.337 80.3318 219.574 80.4853 220.714 80.9394C221.854 81.3935 222.857 82.1329 223.629 83.0866C224.401 84.0403 224.914 85.1763 225.12 86.3856C226.088 91.5264 226.908 94.5034 224.992 97.7357Z" fill="#E4897B"/>
<path d="M217.479 90.0816C217.55 90.2382 217.559 90.4161 217.502 90.5786C217.446 90.7411 217.33 90.8759 217.177 90.9552C216.908 91.0224 216.606 90.7401 216.505 90.3302C216.404 89.9203 216.539 89.5238 216.807 89.4566C217.076 89.3894 217.372 89.6649 217.479 90.0816Z" fill="#263238"/>
<path d="M212.943 91.0358C213.078 91.439 212.91 91.8423 212.648 91.9095C212.386 91.9767 212.07 91.6944 211.976 91.2845C211.882 90.8746 212.009 90.4781 212.278 90.4109C212.547 90.3437 212.843 90.6461 212.943 91.0358Z" fill="#263238"/>
<path d="M214.576 91.1635C214.447 92.5142 214.128 93.8399 213.629 95.1014C214.301 95.3702 215.242 94.9468 215.88 94.5974L214.576 91.1635Z" fill="#DE5753"/>
<path d="M218.823 87.8774C218.781 87.894 218.735 87.899 218.69 87.8919C218.645 87.8848 218.603 87.8659 218.568 87.837C218.327 87.6352 218.043 87.4925 217.737 87.4201C217.431 87.3478 217.113 87.3479 216.807 87.4204C216.776 87.4342 216.741 87.4412 216.707 87.441C216.672 87.4408 216.638 87.4334 216.606 87.4193C216.575 87.4051 216.547 87.3845 216.524 87.3588C216.5 87.3331 216.483 87.3029 216.472 87.27C216.461 87.2371 216.457 87.2024 216.461 87.1679C216.464 87.1335 216.475 87.1002 216.492 87.0701C216.509 87.0399 216.532 87.0137 216.56 86.993C216.587 86.9724 216.619 86.9577 216.653 86.95C217.037 86.8523 217.438 86.8464 217.824 86.9328C218.211 87.0192 218.572 87.1954 218.877 87.4473C218.903 87.4671 218.925 87.4918 218.942 87.5201C218.958 87.5484 218.969 87.5797 218.973 87.6122C218.978 87.6447 218.976 87.6777 218.967 87.7094C218.959 87.741 218.944 87.7707 218.924 87.7967C218.895 87.829 218.861 87.8563 218.823 87.8774Z" fill="#263238"/>
<path d="M216.841 96.6336C217.453 96.5683 218.04 96.3589 218.556 96.0224C219.071 95.686 219.499 95.2322 219.804 94.6983C219.812 94.6829 219.817 94.6661 219.818 94.6488C219.82 94.6316 219.817 94.6143 219.812 94.5979C219.806 94.5816 219.797 94.5666 219.785 94.5538C219.774 94.541 219.76 94.5307 219.744 94.5235C219.73 94.5155 219.714 94.5105 219.697 94.5089C219.681 94.5073 219.664 94.509 219.648 94.5141C219.633 94.5191 219.618 94.5273 219.606 94.5382C219.593 94.5491 219.583 94.5624 219.576 94.5773C219.286 95.0684 218.885 95.4851 218.406 95.7942C217.926 96.1033 217.381 96.2964 216.814 96.3581C216.797 96.3589 216.78 96.3633 216.764 96.3709C216.748 96.3786 216.734 96.3893 216.723 96.4026C216.712 96.4158 216.703 96.4312 216.698 96.4478C216.693 96.4644 216.691 96.4819 216.693 96.4992C216.695 96.516 216.7 96.5323 216.708 96.5472C216.716 96.5621 216.727 96.5752 216.74 96.5858C216.753 96.5964 216.768 96.6043 216.784 96.6091C216.8 96.6138 216.817 96.6153 216.834 96.6135L216.841 96.6336Z" fill="#263238"/>
<path d="M210.659 89.8329C210.619 89.8654 210.569 89.8822 210.517 89.88C210.485 89.8743 210.455 89.8623 210.427 89.8446C210.4 89.8269 210.377 89.8039 210.359 89.7769C210.34 89.7499 210.328 89.7196 210.322 89.6876C210.315 89.6557 210.316 89.6228 210.323 89.591C210.395 89.2003 210.56 88.8325 210.803 88.5181C211.046 88.2037 211.36 87.9518 211.72 87.7833C211.751 87.7714 211.783 87.7655 211.816 87.7662C211.849 87.7668 211.881 87.7738 211.911 87.787C211.941 87.8001 211.968 87.819 211.991 87.8425C212.013 87.8661 212.031 87.894 212.043 87.9244C212.055 87.9549 212.061 87.9874 212.06 88.0201C212.059 88.0528 212.052 88.085 212.039 88.115C212.026 88.145 212.007 88.172 211.984 88.1947C211.96 88.2173 211.932 88.2351 211.902 88.247C211.621 88.3879 211.377 88.5925 211.189 88.8445C211.001 89.0965 210.875 89.389 210.82 89.6985C210.804 89.7308 210.781 89.7594 210.753 89.7826C210.725 89.8057 210.693 89.8228 210.659 89.8329Z" fill="#263238"/>
<path d="M228.373 89.9808C228.097 91.2709 227.324 92.4007 226.222 93.1257C224.75 94.0665 223.534 92.8771 223.48 91.224C223.48 89.7523 224.206 87.4406 225.893 87.192C227.58 86.9433 228.682 88.3949 228.373 89.9808Z" fill="#E4897B"/>
<path d="M205.229 110.262C202.711 112.659 200.858 115.67 199.853 118.998C198.589 123.03 197.407 132.525 196.829 137.679C196.708 138.675 196.269 139.604 195.578 140.331C194.887 141.057 193.98 141.541 192.992 141.711L178.839 144.178L179.968 151.375L197.897 149.648C199.816 149.463 201.624 148.664 203.052 147.37C204.481 146.076 205.454 144.355 205.827 142.464C206.922 136.92 208.387 128.883 209.052 122.519C210.181 111.707 208.992 109.146 205.229 110.262Z" fill="#F4D1A1"/>
<path opacity="0.1" d="M205.229 110.262C202.711 112.659 200.858 115.67 199.853 118.998C198.589 123.03 197.407 132.525 196.829 137.679C196.708 138.675 196.269 139.604 195.578 140.331C194.887 141.057 193.98 141.541 192.992 141.711L178.839 144.178L179.968 151.375L197.897 149.648C199.816 149.463 201.624 148.664 203.052 147.37C204.481 146.076 205.454 144.355 205.827 142.464C206.922 136.92 208.387 128.883 209.052 122.519C210.181 111.707 208.992 109.146 205.229 110.262Z" fill="black"/>
<path d="M195.29 270.211L189.968 268.901L192.998 257.497L198.321 258.807L195.29 270.211Z" fill="#E4897B"/>
<path d="M190.021 267.06L196.069 269.237C196.169 269.273 196.252 269.342 196.306 269.433C196.36 269.523 196.381 269.63 196.365 269.734L195.754 274.512C195.725 274.718 195.617 274.903 195.452 275.029C195.287 275.155 195.079 275.211 194.873 275.184C194.815 275.176 194.759 275.16 194.705 275.137C192.763 274.405 191.386 273.793 188.933 272.886C187.421 272.335 182.804 270.87 180.721 270.097C178.638 269.324 179.108 267.187 180.049 267.301C184.182 267.852 187.481 267.738 189.101 267.08C189.394 266.958 189.723 266.951 190.021 267.06Z" fill="#2E353A"/>
<path d="M188.059 267.335C187.711 267.243 187.407 267.031 187.199 266.737C187.137 266.627 187.104 266.504 187.104 266.377C187.104 266.251 187.137 266.127 187.199 266.018C187.222 265.949 187.265 265.888 187.322 265.842C187.38 265.797 187.449 265.769 187.522 265.763C188.194 265.675 189.423 267.241 189.538 267.422C189.553 267.441 189.561 267.465 189.561 267.49C189.561 267.514 189.553 267.538 189.538 267.557C189.528 267.58 189.51 267.599 189.488 267.611C189.467 267.623 189.441 267.628 189.417 267.624C188.955 267.577 188.5 267.48 188.059 267.335ZM187.69 266.038C187.637 266.024 187.581 266.024 187.528 266.038C187.528 266.038 187.441 266.038 187.401 266.146C187.362 266.22 187.342 266.303 187.342 266.388C187.342 266.472 187.362 266.555 187.401 266.629C187.869 267.081 188.49 267.34 189.141 267.355C188.746 266.828 188.253 266.381 187.69 266.038Z" fill="#F4D1A1"/>
<path d="M189.397 267.617H189.336C188.926 267.154 188.328 265.702 188.617 265.218C188.666 265.137 188.742 265.075 188.831 265.043C188.92 265.011 189.018 265.011 189.108 265.043C189.202 265.063 189.291 265.102 189.368 265.159C189.446 265.216 189.511 265.289 189.558 265.373C189.961 266.045 189.558 267.523 189.558 267.597C189.552 267.618 189.539 267.637 189.523 267.651C189.506 267.666 189.485 267.675 189.464 267.678C189.449 267.673 189.435 267.665 189.423 267.655C189.412 267.644 189.403 267.632 189.397 267.617ZM189.121 265.245H189.067C188.913 265.191 188.872 265.279 188.852 265.306C188.671 265.608 189.007 266.65 189.376 267.234C189.558 266.659 189.558 266.042 189.376 265.467C189.351 265.414 189.316 265.368 189.272 265.329C189.228 265.291 189.177 265.262 189.121 265.245Z" fill="#F4D1A1"/>
<path opacity="0.2" d="M198.321 258.807L192.998 257.497L191.439 263.384L196.762 264.687L198.321 258.807Z" fill="black"/>
<path d="M230.53 270.157L225.086 270.802L223.91 259.063L229.354 258.417L230.53 270.157Z" fill="#E4897B"/>
<path d="M224.488 269.062L230.906 268.975C231.012 268.975 231.115 269.011 231.198 269.077C231.28 269.143 231.339 269.235 231.363 269.338L232.465 274.042C232.509 274.244 232.472 274.455 232.361 274.63C232.25 274.805 232.075 274.929 231.874 274.976C231.816 274.983 231.757 274.983 231.699 274.976C229.622 274.976 228.11 274.861 225.503 274.895C223.897 274.895 219.059 275.144 216.841 275.177C214.623 275.211 214.301 273.013 215.208 272.805C219.24 271.864 222.318 270.594 223.608 269.405C223.845 269.18 224.161 269.057 224.488 269.062Z" fill="#2E353A"/>
<path d="M222.755 270.009C222.395 270.045 222.034 269.955 221.733 269.754C221.634 269.675 221.557 269.571 221.51 269.454C221.463 269.336 221.447 269.208 221.464 269.082C221.461 269.009 221.478 268.936 221.515 268.873C221.552 268.81 221.607 268.759 221.673 268.726C222.257 268.417 223.978 269.445 224.166 269.559C224.187 269.57 224.205 269.588 224.216 269.61C224.227 269.632 224.23 269.656 224.226 269.68C224.224 269.706 224.214 269.73 224.197 269.749C224.18 269.769 224.157 269.782 224.132 269.788C223.683 269.915 223.221 269.989 222.755 270.009ZM221.955 268.928C221.899 268.921 221.842 268.933 221.794 268.961C221.76 268.961 221.72 269.008 221.713 269.109C221.704 269.193 221.715 269.277 221.745 269.355C221.776 269.434 221.825 269.504 221.888 269.559C222.484 269.819 223.156 269.843 223.769 269.626C223.215 269.279 222.599 269.041 221.955 268.928Z" fill="#F4D1A1"/>
<path d="M224.099 269.808H224.038C223.494 269.519 222.425 268.37 222.526 267.792C222.542 267.698 222.59 267.613 222.663 267.552C222.735 267.49 222.827 267.456 222.923 267.456C223.017 267.443 223.113 267.449 223.205 267.476C223.296 267.503 223.381 267.549 223.453 267.611C224.072 268.101 224.22 269.627 224.226 269.687C224.227 269.71 224.222 269.732 224.212 269.752C224.201 269.772 224.185 269.789 224.166 269.801L224.099 269.808ZM223.01 267.678H222.949C222.788 267.678 222.775 267.772 222.775 267.805C222.708 268.148 223.393 269.022 223.944 269.425C223.894 268.82 223.66 268.245 223.272 267.779C223.201 267.713 223.107 267.677 223.01 267.678Z" fill="#F4D1A1"/>
<path opacity="0.2" d="M229.354 258.417L223.91 259.063L224.522 265.117L229.965 264.472L229.354 258.417Z" fill="black"/>
<path d="M205.215 162.866C205.215 162.866 191.52 229.824 191.05 255.535L200.175 259.614C200.175 259.614 207.608 230.563 210.02 214.24C210.02 214.24 216.418 201.277 218.138 190.72C218.138 190.72 217.782 237.088 222.587 261.556L231.148 260.884C231.148 260.884 239.783 173.9 238.224 159.976L205.215 162.866Z" fill="#F4D1A1"/>
<path opacity="0.6" d="M205.215 162.866C205.215 162.866 191.52 229.824 191.05 255.535L200.175 259.614C200.175 259.614 207.608 230.563 210.02 214.24C210.02 214.24 216.418 201.277 218.138 190.72C218.138 190.72 217.782 237.088 222.587 261.556L231.148 260.884C231.148 260.884 239.783 173.9 238.224 159.976L205.215 162.866Z" fill="white"/>
<path opacity="0.2" d="M216.653 173.819C216.653 173.819 215.638 189.739 217.083 195.586C217.52 193.939 217.883 192.299 218.138 190.714L216.653 173.819Z" fill="black"/>
<path d="M221.498 263.498L233.251 261.751L232.888 258.498L220.671 260.098L221.498 263.498Z" fill="#F4D1A1"/>
<path d="M189.504 258.041L200.854 261.536L201.936 258.451L190.223 254.614L189.504 258.041Z" fill="#F4D1A1"/>
<path d="M205.229 110.262C205.229 110.262 206.68 107.392 219.435 106.653C232.189 105.914 237.888 107.802 237.888 107.802C237.888 107.802 236.732 134.803 238.211 159.983C238.211 159.983 216.881 167.583 205.202 162.866C205.215 162.866 196.466 130.254 205.229 110.262Z" fill="#F4D1A1"/>
<path opacity="0.2" d="M224.004 106.492C222.593 106.492 221.075 106.559 219.435 106.653C218.447 106.714 217.54 106.781 216.686 106.861C216.686 106.861 217.775 108.924 219.435 108.924C220.338 108.927 221.228 108.707 222.025 108.282C222.823 107.858 223.502 107.243 224.004 106.492Z" fill="black"/>
<path opacity="0.3" d="M237.559 141.577L218.138 151.395C218.138 151.395 230.382 151.771 237.7 147.8C237.642 145.699 237.595 143.624 237.559 141.577Z" fill="black"/>
<path opacity="0.1" d="M219.186 114.213L226.088 144.917L224.556 148.888L219.186 114.213Z" fill="black"/>
<path d="M219.24 115.072L182.896 120.579L188.158 155.313L224.503 149.806L219.24 115.072Z" fill="#F4D1A1"/>
<path opacity="0.1" d="M219.24 115.072L182.896 120.579L188.158 155.313L224.503 149.806L219.24 115.072Z" fill="white"/>
<path d="M191.851 118.437L163.734 122.79L169.101 157.462L197.219 153.109L191.851 118.437Z" fill="#F4D1A1"/>
<path opacity="0.3" d="M191.851 118.437L163.734 122.79L169.101 157.462L197.219 153.109L191.851 118.437Z" fill="white"/>
<path opacity="0.3" d="M181.776 119.993L173.82 121.225L175.265 130.562L183.221 129.33L181.776 119.993Z" fill="white"/>
<path opacity="0.1" d="M211.461 115.405L203.506 116.637L204.951 125.974L212.907 124.742L211.461 115.405Z" fill="black"/>
<path opacity="0.2" d="M194.346 146.18L185.653 147.526L186.472 152.819L195.165 151.473L194.346 146.18Z" fill="white"/>
<path opacity="0.2" d="M207.923 151.119L207.03 149.937L204.147 150.555C203.993 151.046 203.934 151.561 203.972 152.074L208.004 151.455L207.923 151.119Z" fill="#2E353A"/>
<path d="M202.944 136.564C202.272 136.792 201.331 136.779 201.237 135.892C201.163 135.153 202.037 134.548 202.702 134.669C202.754 134.678 202.807 134.666 202.85 134.635C202.893 134.605 202.922 134.559 202.931 134.507C202.939 134.456 202.927 134.403 202.897 134.36C202.867 134.317 202.821 134.288 202.769 134.279C202.531 134.246 202.289 134.263 202.058 134.331C201.828 134.398 201.614 134.514 201.432 134.67C201.249 134.827 201.102 135.02 201 135.238C200.899 135.455 200.844 135.692 200.841 135.932C200.955 137.101 202.185 137.276 203.092 136.94C203.354 136.853 203.213 136.476 202.944 136.564Z" fill="white"/>
<path d="M203.616 132.868C203.555 132.619 203.159 132.66 203.213 132.908C203.504 134.189 203.788 135.469 204.066 136.745C204.12 136.994 204.516 136.96 204.463 136.705L203.616 132.868Z" fill="white"/>
<path d="M206.002 133.62C205.974 133.628 205.951 133.644 205.934 133.667C204.14 134.01 205.195 136.812 206.862 136.295C207.205 136.146 207.48 135.876 207.635 135.536C207.79 135.196 207.814 134.81 207.702 134.454C207.662 134.277 207.582 134.111 207.47 133.968C207.357 133.826 207.214 133.711 207.051 133.631C206.888 133.551 206.709 133.508 206.527 133.507C206.346 133.505 206.166 133.544 206.002 133.62ZM206.889 135.845C205.713 136.517 204.671 134.286 206.008 134.057C206.049 134.052 206.087 134.033 206.116 134.003C207.312 133.506 207.803 135.321 206.889 135.845Z" fill="white"/>
<path d="M209.355 132.559L208.622 132.686L208.501 131.893C208.461 131.638 208.065 131.678 208.105 131.934C208.145 132.189 208.186 132.478 208.233 132.754L207.507 132.874C207.258 132.922 207.292 133.318 207.547 133.278L208.293 133.15L208.737 136.033C208.777 136.282 209.173 136.241 209.133 135.986C208.985 135.018 208.831 134.05 208.683 133.083L209.402 132.955C209.664 132.915 209.61 132.512 209.355 132.559Z" fill="white"/>
<path d="M212.164 133.09C211.92 132.945 211.639 132.874 211.355 132.885C211.072 132.895 210.797 132.987 210.564 133.15C210.47 132.626 210.37 132.102 210.262 131.578C210.208 131.329 209.812 131.369 209.866 131.625C210.139 132.969 210.363 134.313 210.538 135.657C210.578 135.912 210.974 135.872 210.934 135.616C210.84 134.944 210.732 134.272 210.618 133.6C210.722 133.497 210.846 133.416 210.983 133.363C211.12 133.31 211.266 133.286 211.412 133.293C211.559 133.299 211.702 133.335 211.834 133.4C211.966 133.464 212.083 133.556 212.177 133.667C212.42 134.18 212.547 134.74 212.547 135.307C212.559 135.354 212.587 135.395 212.627 135.422C212.666 135.45 212.715 135.462 212.762 135.457C212.81 135.452 212.855 135.43 212.888 135.395C212.921 135.361 212.941 135.315 212.943 135.267C212.903 134.541 212.876 133.473 212.164 133.09Z" fill="white"/>
<path d="M213.857 132.323C213.696 132.409 213.554 132.529 213.442 132.673C213.33 132.818 213.25 132.985 213.208 133.163C213.165 133.341 213.161 133.526 213.195 133.705C213.23 133.885 213.302 134.055 213.407 134.205C213.494 134.387 213.617 134.549 213.77 134.68C213.923 134.812 214.101 134.911 214.293 134.97C214.486 135.029 214.689 135.048 214.889 135.025C215.089 135.002 215.282 134.938 215.457 134.837C215.685 134.723 215.544 134.346 215.316 134.46C215.129 134.594 214.903 134.659 214.674 134.646C214.445 134.632 214.228 134.541 214.059 134.387C213.929 134.267 213.82 134.126 213.736 133.97C214.328 134.017 215.41 133.896 215.436 133.251C215.47 132.424 214.523 132.061 213.857 132.323ZM214.986 133.311C214.926 133.405 214.65 133.466 214.543 133.499C214.239 133.598 213.915 133.616 213.602 133.553C213.582 133.445 213.583 133.335 213.606 133.227C213.629 133.12 213.674 133.018 213.736 132.928C213.833 132.808 213.964 132.721 214.112 132.677C214.259 132.634 214.417 132.637 214.563 132.686C214.758 132.733 215.174 133.056 214.986 133.311Z" fill="white"/>
<path d="M218.4 133.103C218.289 132.911 218.116 132.763 217.91 132.681C217.704 132.6 217.477 132.59 217.264 132.653C216.942 132.72 216.162 133.042 216.337 132.404C216.444 131.981 217.009 131.819 217.405 131.853C217.661 131.853 217.728 131.483 217.466 131.457C216.794 131.396 215.497 132.001 215.914 132.881C216.108 133.291 216.586 133.244 216.975 133.15C217.188 133.063 217.417 133.019 217.647 133.022C217.732 133.028 217.813 133.057 217.882 133.107C217.951 133.156 218.004 133.223 218.037 133.301C218.07 133.379 218.08 133.465 218.067 133.549C218.054 133.632 218.018 133.711 217.963 133.775C217.681 134.145 217.13 134.077 216.727 134.01C216.676 134.005 216.625 134.02 216.585 134.051C216.544 134.082 216.517 134.127 216.509 134.177C216.5 134.227 216.511 134.279 216.539 134.322C216.567 134.364 216.61 134.394 216.659 134.407C216.911 134.478 217.175 134.493 217.433 134.45C217.691 134.407 217.937 134.307 218.151 134.158C218.297 134.03 218.4 133.859 218.444 133.67C218.489 133.481 218.473 133.283 218.4 133.103Z" fill="white"/>
<path d="M224.603 144.198L212.863 147.06C211.964 146.484 210.89 146.246 209.832 146.388C208.179 146.684 203.992 150.037 204.147 150.535C204.301 151.032 208.179 154.069 208.898 153.848C209.617 153.626 214.14 150.427 214.14 150.427L225.322 149.493L224.603 144.198Z" fill="#E4897B"/>
<path d="M237.142 107.762C237.142 107.762 232.21 109.072 232.908 118.225C233.218 122.203 233.372 126.45 233.453 129.985C233.502 132.35 232.877 134.679 231.651 136.702C230.426 138.725 228.65 140.358 226.531 141.409L216.895 145.347L218.138 151.395C218.138 151.395 232.142 150.111 237.068 146.173C241.994 142.235 243.708 133.829 242.908 126.86C241.792 117.183 242.162 107.372 237.142 107.762Z" fill="#F4D1A1"/>
<path opacity="0.1" d="M237.142 107.762C237.142 107.762 232.21 109.072 232.908 118.225C233.218 122.203 233.372 126.45 233.453 129.985C233.502 132.35 232.877 134.679 231.651 136.702C230.426 138.725 228.65 140.358 226.531 141.409L216.895 145.347L218.138 151.395C218.138 151.395 232.142 150.111 237.068 146.173C241.994 142.235 243.708 133.829 242.908 126.86C241.792 117.183 242.162 107.372 237.142 107.762Z" fill="black"/>
<path d="M217.809 143.815L218.628 152.228L216.364 152.443L215.161 144.567L217.809 143.815Z" fill="#F4D1A1"/>
<path opacity="0.6" d="M217.809 143.815L218.628 152.228L216.364 152.443L215.161 144.567L217.809 143.815Z" fill="white"/>
<path opacity="0.4" d="M229.653 120.708L221.842 121.407L221.953 122.652L229.764 121.953L229.653 120.708Z" fill="white"/>
<path d="M219.435 106.653L221.962 110.013L227.291 106.498V106.176C227.303 105.894 227.249 105.613 227.132 105.356C227.015 105.099 226.839 104.873 226.619 104.698C226.364 104.541 226.074 104.448 225.776 104.428C225.477 104.408 225.178 104.462 224.905 104.583L219.435 106.653Z" fill="#F4D1A1"/>
<path d="M215.88 106.922L216.505 105.887C217.291 104.96 217.916 105.437 217.916 105.437L219.435 106.653L217.217 110.013L215.88 106.922Z" fill="#F4D1A1"/>
<path opacity="0.6" d="M219.435 106.653L221.962 110.013L227.291 106.498V106.176C227.303 105.894 227.249 105.613 227.132 105.356C227.015 105.099 226.839 104.873 226.619 104.698C226.364 104.541 226.074 104.448 225.776 104.428C225.477 104.408 225.178 104.462 224.905 104.583L219.435 106.653Z" fill="white"/>
<path opacity="0.6" d="M215.88 106.922L216.505 105.887C217.291 104.96 217.916 105.437 217.916 105.437L219.435 106.653L217.217 110.013L215.88 106.922Z" fill="white"/>
<path d="M228.238 89.8464C228.594 87.5481 227.002 87.2323 225.953 87.5078C224.905 87.7833 223.769 89.4499 223.769 89.4499C222.748 87.7968 222.17 83.6102 222.17 83.6102C220.871 84.3277 219.424 84.7339 217.942 84.7969C216.46 84.8599 214.983 84.5779 213.629 83.9731C213.107 85.3849 212.13 86.5833 210.853 87.3801C210.853 87.3801 208.958 86.5133 210.013 82.1587C211.21 77.2061 218.649 72.4147 226.141 77.3539C233.634 82.2931 229.098 91.4659 229.098 91.4659C229.098 91.4659 227.398 94.4697 225.893 95.5987C226.02 94.7072 226.02 93.8022 225.893 92.9107C226.504 92.6293 227.036 92.2031 227.445 91.6691C227.854 91.1351 228.126 90.5094 228.238 89.8464Z" fill="#2E353A"/>
<path d="M212.742 82.7433C213.175 83.2727 213.677 83.7427 214.234 84.141C214.8 84.5453 215.414 84.8793 216.061 85.1356C216.708 85.3903 217.386 85.5553 218.077 85.6262C218.785 85.6933 219.498 85.673 220.201 85.5657C219.503 85.729 218.787 85.8057 218.071 85.7942C217.344 85.7809 216.622 85.6655 215.927 85.4514C215.219 85.243 214.541 84.9425 213.911 84.5577C213.271 84.1744 212.685 83.7065 212.171 83.1666L212.742 82.7433Z" fill="#2E353A"/>
<path d="M299.154 120.718C293.711 115.853 287.354 122.452 287.354 122.452C287.354 122.452 280.99 115.853 275.554 120.718C267.799 127.66 279.075 140.092 287.354 142.578C295.633 140.092 306.909 127.68 299.154 120.718Z" fill="#F4D1A1"/>
<path opacity="0.6" d="M299.154 120.718C293.711 115.853 287.354 122.452 287.354 122.452C287.354 122.452 280.99 115.853 275.554 120.718C267.799 127.66 279.075 140.092 287.354 142.578C295.633 140.092 306.909 127.68 299.154 120.718Z" fill="white"/>
<path d="M189.282 56.0045C183.839 51.1392 177.482 57.7383 177.482 57.7383C177.482 57.7383 171.118 51.1392 165.682 56.0045C157.927 62.9396 169.203 75.3716 177.482 77.8647C185.761 75.3716 197.037 62.9396 189.282 56.0045Z" fill="#F4D1A1"/>
<path opacity="0.6" d="M189.282 56.0045C183.839 51.1392 177.482 57.7383 177.482 57.7383C177.482 57.7383 171.118 51.1392 165.682 56.0045C157.927 62.9396 169.203 75.3716 177.482 77.8647C185.761 75.3716 197.037 62.9396 189.282 56.0045Z" fill="white"/>
<path d="M253.237 76.2049C251.012 74.1889 248.412 76.9172 248.412 76.9172C248.412 76.9172 245.818 74.2292 243.593 76.2049C240.421 79.0407 245.031 84.121 248.412 85.1425C251.798 84.121 256.402 79.0407 253.237 76.2049Z" fill="#F4D1A1"/>
<path opacity="0.6" d="M253.237 76.2049C251.012 74.1889 248.412 76.9172 248.412 76.9172C248.412 76.9172 245.818 74.2292 243.593 76.2049C240.421 79.0407 245.031 84.121 248.412 85.1425C251.798 84.121 256.402 79.0407 253.237 76.2049Z" fill="white"/>
<path d="M50.0438 129.602C47.8195 127.586 45.2256 130.314 45.2256 130.314C45.2256 130.314 42.625 127.626 40.4006 129.602C37.2355 132.438 41.8387 137.518 45.2256 138.533C48.6058 137.518 53.2157 132.438 50.0438 129.602Z" fill="#F4D1A1"/>
<path opacity="0.6" d="M50.0438 129.602C47.8195 127.586 45.2256 130.314 45.2256 130.314C45.2256 130.314 42.625 127.626 40.4006 129.602C37.2355 132.438 41.8387 137.518 45.2256 138.533C48.6058 137.518 53.2157 132.438 50.0438 129.602Z" fill="white"/>
</svg>
